<mxfile host="app.diagrams.net" modified="2023-12-29T02:14:20.587Z" agent="Mozilla/5.0 (Windows NT 10.0; Win64; x64) AppleWebKit/537.36 (KHTML, like Gecko) Chrome/120.0.0.0 Safari/537.36 Edg/120.0.0.0" etag="tflquevXIebDA9vVHRsH" version="22.1.14" type="onedrive">
  <diagram name="Page-1" id="Mjr_8FI8-MyLqkwJTAXw">
    <mxGraphModel grid="1" page="1" gridSize="10" guides="1" tooltips="1" connect="1" arrows="1" fold="1" pageScale="1" pageWidth="827" pageHeight="1169" math="0" shadow="0">
      <root>
        <mxCell id="0" />
        <mxCell id="1" parent="0" />
        <mxCell id="4vnJShNR1k7JBB3oN384-1" style="edgeStyle=orthogonalEdgeStyle;rounded=0;orthogonalLoop=1;jettySize=auto;html=1;exitX=0.5;exitY=1;exitDx=0;exitDy=0;" edge="1" parent="1" target="4vnJShNR1k7JBB3oN384-3">
          <mxGeometry relative="1" as="geometry">
            <mxPoint x="260" y="1260" as="targetPoint" />
            <mxPoint x="260" y="1160" as="sourcePoint" />
          </mxGeometry>
        </mxCell>
        <mxCell id="4vnJShNR1k7JBB3oN384-2" style="edgeStyle=orthogonalEdgeStyle;rounded=0;orthogonalLoop=1;jettySize=auto;html=1;exitX=0.5;exitY=1;exitDx=0;exitDy=0;entryX=0.5;entryY=0;entryDx=0;entryDy=0;" edge="1" parent="1" source="4vnJShNR1k7JBB3oN384-3" target="4vnJShNR1k7JBB3oN384-5">
          <mxGeometry relative="1" as="geometry">
            <mxPoint x="260" y="1440" as="targetPoint" />
          </mxGeometry>
        </mxCell>
        <mxCell id="4vnJShNR1k7JBB3oN384-3" value="&lt;font face=&quot;Consolas, Courier New, monospace&quot; color=&quot;#383a42&quot;&gt;&lt;span style=&quot;font-size: 14px;&quot;&gt;Then a new thread is started which runs an infinite loop, checking each process&#39; lowercase file name for the substrings:&lt;br&gt;&amp;nbsp;&lt;/span&gt;&lt;/font&gt;&lt;span style=&quot;font-family: Consolas, &amp;quot;Courier New&amp;quot;, monospace; font-size: 14px; color: rgb(80, 161, 79);&quot;&gt;&quot;askmg&quot;, &quot;rocex&quot;,&amp;nbsp;&lt;/span&gt;&lt;span style=&quot;font-family: Consolas, &amp;quot;Courier New&amp;quot;, monospace; font-size: 14px; color: rgb(80, 161, 79);&quot;&gt;&quot;egedi&quot;,&amp;nbsp;&lt;/span&gt;&lt;span style=&quot;font-family: Consolas, &amp;quot;Courier New&amp;quot;, monospace; font-size: 14px; color: rgb(80, 161, 79);&quot;&gt;&quot;sconfi&quot;,&amp;nbsp;&lt;/span&gt;&lt;font style=&quot;font-family: Consolas, &amp;quot;Courier New&amp;quot;, monospace; font-size: 14px;&quot; color=&quot;#50a14f&quot;&gt;&quot;cmd&quot; &lt;/font&gt;&lt;br&gt;&lt;font style=&quot;&quot; color=&quot;#383a42&quot;&gt;&lt;font face=&quot;Consolas, Courier New, monospace&quot;&gt;&lt;span style=&quot;font-size: 14px;&quot;&gt;this will terminate:&lt;/span&gt;&lt;/font&gt;&lt;br&gt;&lt;font face=&quot;Consolas, Courier New, monospace&quot;&gt;&lt;span style=&quot;font-size: 14px;&quot;&gt;&amp;nbsp;Task Manager (Taskmgr.exe), SysInternals&#39; Process Explorer (procexp*.exe), Registry Editor (regedit.exe), System Configuration (msconfig.exe) and Command Prompt (cmd.exe)&lt;/span&gt;&lt;/font&gt;&lt;br&gt;&lt;br&gt;&lt;/font&gt;" style="rounded=0;whiteSpace=wrap;html=1;fillColor=#f5f5f5;fontColor=#333333;strokeColor=#666666;" vertex="1" parent="1">
          <mxGeometry x="-50" y="1180" width="620" height="190" as="geometry" />
        </mxCell>
        <mxCell id="4vnJShNR1k7JBB3oN384-4" style="edgeStyle=orthogonalEdgeStyle;rounded=0;orthogonalLoop=1;jettySize=auto;html=1;exitX=0.5;exitY=1;exitDx=0;exitDy=0;" edge="1" parent="1" source="4vnJShNR1k7JBB3oN384-5" target="4vnJShNR1k7JBB3oN384-8">
          <mxGeometry relative="1" as="geometry">
            <mxPoint x="260.1578947368421" y="1550" as="targetPoint" />
          </mxGeometry>
        </mxCell>
        <mxCell id="4vnJShNR1k7JBB3oN384-5" value="&lt;span style=&quot;font-family: Consolas, &amp;quot;Courier New&amp;quot;, monospace; font-size: 14px; color: rgb(56, 58, 66);&quot;&gt;If the OSVERSIONINFO.dwBuildNumber isn&#39;t that of Windows XP, a&lt;/span&gt;&lt;font color=&quot;#383a42&quot; style=&quot;&quot;&gt;&lt;font face=&quot;Consolas, Courier New, monospace&quot;&gt;&lt;span style=&quot;font-size: 14px;&quot;&gt;nother thread is started, this time not running an infinite loop. First, it disables file system redirection for the thread (e.g. C:\Windows\system32-&amp;gt; C:\Windows\SysWow64) using&amp;nbsp;&lt;/span&gt;&lt;/font&gt;&lt;/font&gt;&lt;span style=&quot;font-family: Consolas, &amp;quot;Courier New&amp;quot;, monospace; font-size: 14px;&quot;&gt;&lt;font color=&quot;#50a14f&quot;&gt;Wow64DisableWow64FsRedirection&lt;/font&gt;&lt;/span&gt;&lt;span style=&quot;font-family: Consolas, &amp;quot;Courier New&amp;quot;, monospace; font-size: 14px; color: rgb(56, 58, 66);&quot;&gt;. Then it executes the command:&lt;/span&gt;&lt;br&gt;&lt;div style=&quot;font-family: Consolas, &amp;quot;Courier New&amp;quot;, monospace; font-size: 14px; line-height: 19px;&quot;&gt;&lt;div style=&quot;&quot;&gt;&lt;font color=&quot;#50a14f&quot;&gt;&quot;(open/runas) wmic.exe shadowcopy delete /noninteractive&quot;&lt;/font&gt;&lt;/div&gt;&lt;/div&gt;&lt;div style=&quot;font-family: Consolas, &amp;quot;Courier New&amp;quot;, monospace; font-size: 14px; line-height: 19px;&quot;&gt;&lt;span style=&quot;color: rgb(56, 58, 66);&quot;&gt;With &quot;open&quot; used if the process is admin and &quot;runas&quot; if not. Then file system redirection is restored using the command &lt;/span&gt;&lt;font color=&quot;#50a14f&quot;&gt;Wow64RevertWow64FsRedirection&lt;/font&gt;&lt;font color=&quot;#383a42&quot;&gt;.&lt;/font&gt;&lt;/div&gt;" style="rounded=0;whiteSpace=wrap;html=1;fillColor=#f5f5f5;fontColor=#333333;strokeColor=#666666;" vertex="1" parent="1">
          <mxGeometry x="-50" y="1390" width="620" height="150" as="geometry" />
        </mxCell>
        <mxCell id="4vnJShNR1k7JBB3oN384-6" value="&lt;span style=&quot;color: rgb(56, 58, 66); font-family: Consolas, &amp;quot;Courier New&amp;quot;, monospace; font-size: 14px; font-style: normal; font-variant-ligatures: normal; font-variant-caps: normal; font-weight: 400; letter-spacing: normal; orphans: 2; text-align: center; text-indent: 0px; text-transform: none; widows: 2; word-spacing: 0px; -webkit-text-stroke-width: 0px; text-decoration-thickness: initial; text-decoration-style: initial; text-decoration-color: initial; float: none; display: inline !important;&quot;&gt;This only terminates processes by their executable name so re-naming and running the executable bypasses this function. Also, all processes but a non-administrator command prompt cannot be opened and therefore terminated by a non-administrator process.&lt;/span&gt;" style="text;html=1;strokeColor=none;fillColor=none;align=center;verticalAlign=middle;whiteSpace=wrap;rounded=0;" vertex="1" parent="1">
          <mxGeometry x="580" y="1195" width="260" height="160" as="geometry" />
        </mxCell>
        <mxCell id="4vnJShNR1k7JBB3oN384-7" style="edgeStyle=orthogonalEdgeStyle;rounded=0;orthogonalLoop=1;jettySize=auto;html=1;exitX=0.5;exitY=1;exitDx=0;exitDy=0;" edge="1" parent="1" source="4vnJShNR1k7JBB3oN384-8" target="4vnJShNR1k7JBB3oN384-12">
          <mxGeometry relative="1" as="geometry">
            <mxPoint x="260.1578947368421" y="1720" as="targetPoint" />
          </mxGeometry>
        </mxCell>
        <mxCell id="4vnJShNR1k7JBB3oN384-8" value="&lt;span style=&quot;border-color: var(--border-color); font-style: normal; font-variant-ligatures: normal; font-variant-caps: normal; font-weight: 400; letter-spacing: normal; orphans: 2; text-align: center; text-indent: 0px; text-transform: none; widows: 2; word-spacing: 0px; -webkit-text-stroke-width: 0px; text-decoration-thickness: initial; text-decoration-style: initial; text-decoration-color: initial; font-family: Consolas, &amp;quot;Courier New&amp;quot;, monospace; font-size: 14px; color: rgb(56, 58, 66);&quot;&gt;The malware then decrypts and stores the whitelisted file extensions that will be encrypted, Command and Control (C&amp;amp;C) server addresses and parts of ransom notes. The decryption uses an RC2-CBC-PKCS5 stream cipher with the key &#39;kasdfgh283&lt;/span&gt;&lt;span style=&quot;background-color: initial;&quot;&gt;&lt;font face=&quot;Consolas, Courier New, monospace&quot; color=&quot;#383a42&quot;&gt;&lt;span style=&quot;font-size: 14px;&quot;&gt;&#39; and the Initialisation Vector (IV) is the first 4 characters concatenated&amp;nbsp;with the last 4 (non &#39;=&#39;) characters. The actual bytes to be decrypted are found by base64 decoding the remaining bytes (not the first or last 4 characters). Then the decoded strings are used as a format string with each %S replaced with the string representation of the ID stored in&amp;nbsp;&lt;/span&gt;&lt;/font&gt;&lt;/span&gt;&lt;font face=&quot;Consolas&quot;&gt;HKEY_CURRENT_USER\Software&lt;span style=&quot;border-color: var(--border-color); font-size: 14px; color: rgb(1, 132, 188);&quot;&gt;\&lt;/span&gt;&lt;span style=&quot;border-color: var(--border-color); font-size: 14px; color: rgb(80, 161, 79);&quot;&gt;xxxsys&lt;/span&gt;&lt;span style=&quot;border-color: var(--border-color); font-size: 14px; color: rgb(1, 132, 188);&quot;&gt;\&quot;ID&quot;.&lt;/span&gt;&lt;/font&gt;" style="rounded=0;whiteSpace=wrap;html=1;fillColor=#dae8fc;strokeColor=#6c8ebf;" vertex="1" parent="1">
          <mxGeometry x="-55" y="1570" width="630" height="150" as="geometry" />
        </mxCell>
        <mxCell id="4vnJShNR1k7JBB3oN384-9" value="&lt;span style=&quot;color: rgb(56, 58, 66); font-family: Consolas, &amp;quot;Courier New&amp;quot;, monospace; font-size: 14px; font-style: normal; font-variant-ligatures: normal; font-variant-caps: normal; font-weight: 400; letter-spacing: normal; orphans: 2; text-align: center; text-indent: 0px; text-transform: none; widows: 2; word-spacing: 0px; -webkit-text-stroke-width: 0px; text-decoration-thickness: initial; text-decoration-style: initial; text-decoration-color: initial; float: none; display: inline !important;&quot;&gt;Skuratovich (2016) provides the list of whitelisted file extensions under Appendix G. This has been checked to be the same as the extension list in the current malware version with &#39;.bak&#39; and &#39;.tiff&#39; added.&lt;/span&gt;" style="text;whiteSpace=wrap;html=1;" vertex="1" parent="1">
          <mxGeometry x="580" y="1570" width="360" height="90" as="geometry" />
        </mxCell>
        <mxCell id="4vnJShNR1k7JBB3oN384-10" value="&lt;span style=&quot;color: rgb(56, 58, 66); font-family: Consolas, &amp;quot;Courier New&amp;quot;, monospace; font-size: 14px; font-style: normal; font-variant-ligatures: normal; font-variant-caps: normal; font-weight: 400; letter-spacing: normal; orphans: 2; text-align: center; text-indent: 0px; text-transform: none; widows: 2; word-spacing: 0px; -webkit-text-stroke-width: 0px; text-decoration-thickness: initial; text-decoration-style: initial; text-decoration-color: initial; float: none; display: inline !important;&quot;&gt;The encryption/decryption key hasn&#39;t changed between these variants&lt;/span&gt;" style="text;whiteSpace=wrap;html=1;" vertex="1" parent="1">
          <mxGeometry x="580" y="1670" width="350" height="40" as="geometry" />
        </mxCell>
        <mxCell id="4vnJShNR1k7JBB3oN384-11" style="edgeStyle=orthogonalEdgeStyle;rounded=0;orthogonalLoop=1;jettySize=auto;html=1;exitX=0.5;exitY=1;exitDx=0;exitDy=0;" edge="1" parent="1" source="4vnJShNR1k7JBB3oN384-12" target="4vnJShNR1k7JBB3oN384-15">
          <mxGeometry relative="1" as="geometry">
            <mxPoint x="260.1578947368421" y="1870" as="targetPoint" />
          </mxGeometry>
        </mxCell>
        <mxCell id="4vnJShNR1k7JBB3oN384-12" value="&lt;span style=&quot;border-color: var(--border-color); font-style: normal; font-variant-ligatures: normal; font-variant-caps: normal; font-weight: 400; letter-spacing: normal; orphans: 2; text-align: center; text-indent: 0px; text-transform: none; widows: 2; word-spacing: 0px; -webkit-text-stroke-width: 0px; text-decoration-thickness: initial; text-decoration-style: initial; text-decoration-color: initial; font-family: Consolas, &amp;quot;Courier New&amp;quot;, monospace; font-size: 14px; color: rgb(56, 58, 66);&quot;&gt;Then a file is created with the path:&lt;br&gt;USERPROFILE\Documents\recovery_file_{9_random_lowercase_chars}.txt&lt;br&gt;it is populated using the format string %s\n%s\n%S\n%d\n with values shown to the right. &quot;Image partial checksum&quot; is the middle bytes of the IMAGE_OPTIONAL_HEADER.checksum for the current process.&lt;/span&gt;" style="rounded=0;whiteSpace=wrap;html=1;fillColor=#dae8fc;strokeColor=#6c8ebf;" vertex="1" parent="1">
          <mxGeometry x="-50" y="1747.11" width="620" height="90" as="geometry" />
        </mxCell>
        <mxCell id="4vnJShNR1k7JBB3oN384-13" value="" style="shape=image;verticalLabelPosition=bottom;labelBackgroundColor=default;verticalAlign=top;aspect=fixed;imageAspect=0;image=data:image/png,iVBORw0KGgoAAAANSUhEUgAAA1UAAAB6CAYAAABX7Xm4AAAAAXNSR0IArs4c6QAAAARnQU1BAACxjwv8YQUAAAAJcEhZcwAAEnQAABJ0Ad5mH3gAAABhaVRYdFNuaXBNZXRhZGF0YQAAAAAAeyJjbGlwUG9pbnRzIjpbeyJ4IjowLCJ5IjowfSx7IngiOjg1NCwieSI6MH0seyJ4Ijo4NTQsInkiOjEyM30seyJ4IjowLCJ5IjoxMjN9XX2mLE3xAAB14ElEQVR4Xu3dB1wUxx4H8N9eA+lFRMEoNuwKFkTEKFbsvcfejcbE2HuJGjXGGo0tKvbeS6KxixpsKCIqoiBFbCBF2t39397dAgeC3lEsvPm+zz5ze8PcbJm2OzvLEQ8MwzAMwzAMwzBMjqg7VRzHCR8ZhmEYhmEYhmEYXanuUaV1qlQfmK8XO4YMwzDM14DVVwzDFCSpZZpI+MwwDMMwDMMwDMPkAOtUMQzDMAzDMAzD5ALrVDEMwzAMwzAMw+SCHs9UKfHixmEc9X6EF3FyfDg0B8NKHTCqXXlIhDVM/tLlGL578C/2n72DsOhEKNOCcuBEEhgYmaFw8XKo7loX1YoZCt8xDMMwTN76eH2lwLPLu3HcJwRRCUqt9oaqvhJBIjWEsXlh2JetjjqulWFrIHzNfDLJD3dhyuRNeFSkI2YsHAxnE+ELhvk/lFqm6T9RRdS/GFXXEysfyPkPEpTpvwGbhzhCJE9EzMsg3DjphdWbLyKu4y6Ebe8MI81ffZ0UITh7Lhb1G1f+4juHOh/D5EAsa1kDP/0by1dUHIwaz8HRabUQFXgV+1YuxS4/oGzzIZi5YDq6VzYW/ignFAg5ew6x9RujMutZMwzDMAJd6ytFuBe6OvXH/pdK/o+M0PiXE/ilgQIvAy9j99LF2H77LSR27vh+xWYs7FiKXcTNUh7Uxe+1hZJwYlBptNkQDgV/XNr8FYrD/SzV3zDM/6PUMk3/4X+WzqhWSix8AAxtK6C2qyvqujdE8w4DMHnNaZxf3go2X/0s7UqE7RyLERv8kSysKRBk36BqBeu0Ay+yKI06DZqj48AZ2HbuMMZWS8LDY4vQy70ppp2P4vdCzijDdmLsiA3wL1A7j2EYhvlUxEWqo4p9antDBItSteBazwNt+k7F5qOL0dqSQ3L4RSzt0xML76gu9DKZ5b4uzqotJEV1z5YoZyKGwTfN0MrVTFjPMP/fcvBMlQiibP5K+TwIT+IkKP3dELSy/bof10q8uwz9Ru/H85z2Kr5gouwOoHl9TJnVE/ZigjL6Kn7tPw7H3wjf6SPxLpb1G439BXHnMQzDMJ8I395Iv4abgahYCzSroblvQvE3sHvPXbBuVSZ5UBdn3RYSwa7zOtx/HY+YJwcwtEI2B4lh/s/kYc9HieeHN+JAqAIwdMewIXWQPsxZidgn3ji8fRO89pzErfAkYb0gOQ5vXr/Ey5eq5TWi3/Fx8H8Tff8Udu48g8B3qiBv8Fr9Pb+8joYqiPzFHZzcsRlbDngjmA+jpoxGwJnd2LxpJ/598DbLOy3KuGD4nNwDr7/+wrbD1xCS+reCuNur0LPNBPz7WglKiUcU/5uvo99BlaqCzrRJBzS3VRWQBPnT7Vi0MTDjdivjEOxzEnu8/sJf2w7j2vs7D6t6tsGEf19DSSmIj0o/Xqk+tv8ZhmEY5oNEJjA24qAZFENIePfu/fr+XQiuHdmGTV77cTEoTljJtyditdsTUYjne2PJEddxZPtW7D0bgOgMESUj7s1roX2S3hZQRt/HqZ07cUbVQNHyLuQajmzj2zr7L0LrJwVyRN4+ju2btuKwTziSkh7j1t3MI0LeIeTaEWzb5IX9F4OgHUVS7GutdL9FIv+HyZG3cGybF3b9G4C32hHlQV2cXVsoIbU99jYGb6OiEJe5N6uMxRPvw/x2emHPyVvI3OTTazsY5mtCmoHNqn90FEXrWxqo/waQUOWJ1yhJtTrFnxZ4eNC8+3J1qDSKMDo6rh7ZGthTixletH1BRyptWpw8xh2iYCGoIuIKrepRjqScKk4p1ZjxH91Z24kcZByBk5Lz9JsU6r2COpeSaH5XWo0GzRlKLvZmZCjiw0BEpjUm0Gn/QzS2QSmyNBITX9ASV6gSjTrxRvMjKopIOju3PdVwH0hLtm2nlcPqkAX/94XKdae/7qu3glLuraEulazIQJ0WjkTGhal48eJUqsXv5J9p074kuh/DRDo7qjTx3Sb19pl02k7xwjdq/PFa0Uim2c/894aNllOIQv0FRZ6dS+1ruNPAJdto+8phVMdCxO/jctT9r/vCOXCP1nSpRFYGqmPC73+RMRXm913xUi3od9XO02H/MwzDMAWbzvVVyh2aWVOqqY84E+q0Xau2SrxIPzkKbQJxCRp8Ilb4QkVBL87NIc+SNlRz2GraMr8dlTAuRR1W3ubrOwWFX1lLfStK1e0ESEpRj8lDqba9BRlLNG2Oog1n0NnX6oqPjyqCrqzqQeWkmnpNWmMG/XdnLXVykPF/z5HUeTrdTlGFe0Hn5nhSSZuaNGz1FprfrgQZl+pAK2+npjmOrs1rSDYWLjRy3Q5aN7U7Naj0DdWa4kOqP1dRvDhHczxLkk3NYbR6y3xqV8KYSnVYSZoo5BR6bh61Ug0lUaVbVp8m/jGK6hU31bSdOAMqO2AvhauSnQd1cfZtod/owpVNNKiagWb/iYvTkJOJ6r9RUYQdpXH1bMnAvgXN8NpOCzqWJtPiHjTuUDC/BSp6bAfDfCVU57L6X+0PusnYqSrTfxOdPbmd5nWrSCayOpk6VSnkv8SDz6x8QVRtKl1XlRzyx7SoHl9I8gVknTk3NY1xXsLhfmTLh1N1qiq07Unt+aV5uULE8QWc07RbfEwJtK+nJYlUv8uvc+iynu7FJdH9+W4kU2dEKZlX6EarbsdQypMl1NBQVZhwZNZhC59iFb4g9epINnzBYVp/Afmp0hK7hToYq8KJyLrHHkotkuUB88lVqkoLRxbddmfsdHyhdD+GH+lU8Z/29LDQFJb8Ii45nE7z5aUi3Is62vCdKNP6tECz82hLB2N1OJF1D9qTvvNovqumEuQsutHutMh13/8MwzBMwaVzfZVNp0oefY92jqhBJnzdz0mLUsPp/9ILrUa4/NGf1JKvr8TFB9Nx1Z+k3KLpTnwnytCZpvmoWh2J9O+Ikpp6kJOQTdOFdDNGQa9PjaQKqs4Tv67U0JMUo46Nl3CY+tmK1OmQVmhLPdvzS/NyVIjjO1VO0+hWipwe/dmSr9/EVHzwcXWdmnJrOjnxcRk6TyPVTyrC1lILU45PU1/a/0qV2CS+fdSUav54XtMOkj+iP1vakIjvpAzWJJpuTXfiOxqG5DzNR2grRdNfrYX2Fyejkt02UmBCJG1qb6FuG3EGDWnJU2FH5EFdnH1bKIkujXEkiSod2p2qFH9a4qFKi5SqTb2u7izKHy+ienwcnEkdmnMztcWnx3YwzFdAdS6r5HL4HyH+6TX8fewwjl56gnhVtNrencKSxRcQreQgcSgHR9XwZ7EdyjiY8lk3Dj5/LMWJWE1QiMXCWMQUBD4shnG7t+HY+dPYsno7No6ppp5xRiKVqkNAUgV9pvRFJWMZHCqWhTnfsldle4fOEzC4uikkRcuilLAyIfQpwtW3u1Pw4L9beKMkxF49gCOP+ZUSIxgZqMIpERMajJdat8X/f4kgk8mEIRX8HkxIwDt+36Y8+A+33ihBsVdx4MhjKPgjYmRkoA6njAlF8Ed3Htv/DMMwTE4l4fqq7+BR0QZmhaug+6pbSCzZExt9A/DvrEawSWvNJOHSikX456US4orOqKF6Q4ikBIoXE4ES72LXDh8k8zWXVCbV1HOioujw8yg4m4pg1XAAOldUdRXkCN6zESfeqgKoiCEW4k8JfIhi43Zj27HzOL1lNbZvHINqiktYsegfvFSKUdG5BjQ/WRzF+H5Y4t1d2OGTDHnwQwQlEBShW9C/8RBs9ktG+WGzMbya5hUmSZdWYNE/L6EUV4SzJtEoUbwY31ZKxN1dO8BHwZNCKhGGPEqqYeC03ihjaIHSDoXV7SdShONZ6MeeLMubuli1/zJ7d2oJFl+IhpKTwKGco7rdJrYrAwd+31KcD/5YekITME+2g2G+PGnFUM5wsK7TD7OW78DFO0fwfaWMmSzZ9ywuPlflTg5GZqZ8NlLhYGCoKUSUr67gvG/mKWnEsHVvjJoG/H8Vc0OvoZ3hZJE5mXxmVOdGnkTC/4UgdSXHF4B8hlVLSgJfjvEM4D5mCab064K+U6agp8NLXNl2FHdUPQaVlBS+qGFUheq7+ARVH1VNZFUYhfndb+A+Bkum9EOXvlMwpacDXl7ZhqN33gnh+H330Z3H9j/DMAyTUwaoNcIL22Y0gaXmwjDkIf9gz8XXafWVmvwhzl0OUU9aobi/FaN69UCPHsP4Tox6DYID7md4TgmcAQwLCW0MSWmUdZCoG/vKGF/4ZDFlntjWHY01DRS49RqKzk4WUD48h8shmvjvbx2FXj343xy2GZqfDEbA/TjIyteGs5Xqd5R467sBA9xc0c/LEF37u0DGp/bhucvQRHEfW0f14tPcA8M2+2m2IzgAfBQZccYwNdW0c9Imn6IUJKdk2BtZyK+6OBm+Zy9C0+Qzgpmp0B5U7V91k0+JV1fOq1dlkOPtYJgvj3AG557IygOj+tQWOk4aylcvESU8cJh+VYPU/1NTvsWbN5mfSBShcLGi6R2l3OIL39SsKSnVDrM2rsPY8pcx0rkeJtwpBBtDofPFY1mYp4jAs4hEYV+IYOFcB1Vk/H9KSqHdrI1YN7Y8Lo90Rr0Jd1DIxlBd+ajpsPPY/mcYhmFyTgS7rkuwtMc3EKuqDuUrnJgyCutVd1tSKV7h5WtNu0I1Q+DMrTuwY8duXOJ7LERKJB4bBCv1t1kxgImJUK9RLN6+fb9WEhUuhqKZGigKvq2j+UkRirWYia07+N/cfYnvJPHtD2Uijg3if9GqE+Yv74vyRpo6Txl7D1uHN0X73+8gie+MvXr5mu92qKIohhYzt/Jp3oHdl/jOId+GUSYegyoKnXy2upjvNL1MnXRDivQmHx+bEKHyrR7TCecsEQzzWeVZp0p1h6l0s/aoa5WeMUWFCyP1JlPqHD0qKcnC1R+RBQqrboNkIs5uDtXcir+NVZ1rwaXXCjzvtAXH5jdBsTzcAwVCjA+u3xcqKL4j1XVgC5iqP8Tj9qrOqOXSCyued8KWY/PRRN+dx/Y/wzAMkxuiouj42zL0LincUXp1ElNGrUNav4ozhonQcVEE3cf9BPV/6kgJpVK4EMtZwFqrPZNGLHrvoi9nbALNTyoQdP8+sv5JMRy6rcfFvxeiQ1kjddqJ7xSe+3URjsVxMDbRrOMTjfv6JVp/+VIXi/j2nIXQqOS3JG3XpSC9yVdY8x8MU0DlaZNWUuVb1CuSHqWsWiPUV1/SIcTHxQlXMOSIi9MMLxPZuOHbaqrbIJ9CMq790hs/7g9EopknfhzrBtPstp4vNFO/Sr/P9f9AiZC9W3FKNZ8sJ0GJbvMwxcNY/U3ytV/Q+8f9CEw0g+ePY+GW/c5Lf48Zv+vS954e+59hGIZhsiGybYeFy/uilFTVclfi9d9TMXKN8PoPWXnUqq5p3CujTmPX4Uih7cFTvsaN/x7wtVF24hEVpenQiCydUbuSbu0TWflaqK6+gqxE1OldOByZ9ov8T97Afw+SoXyxFys2P4WV+1jsvfYvFrW0h+opBeXbCDyPk6B8reqai9DKKJzedRjpUfDbd+M/8FHoKQ/qYr3aQjJUa1RfcxeP4vl2nrAB8jjEqZ/BEMHG7VvNOoYpoLLLStlTvkNCYnrmSkrI9AICbcZNMWbMt3xBQUh4/ABBqsHB8sd49DQFJDKD2+if4GmiCaq6lJE6jjdFnvWI3pS0B3f4sKkFjFyuKUj5DC/nV6qzMaXw32vSSPy6FNVKZSSuXnsI9TDdxAg8ffYWQcdOwlfzwBWQwG+X8J9iM0uYC89kJT4PRfjzC1j2x2mkzqnxtUu7U8iTJyel7ffY2yvx/cyTiIYZKvZchaNru8JOfYYoEXn1Gh5qdh4inj7D26BjOOmb+uxVAt6l7zxYmmuuIPI7D6Hhz3Fh2R84/Vb3/c8wDMMwUCYgIa1iSEFiQmrdxTfQWy3Eiv5loOlXvcY/077Hnw9VjQxztBjWFxVkqh7LSxwYPwCLLzxHkvwlriyfir1hFuoJFNIoYxAW8kbTdki8jVv35aopBVG2x0A0T22f8G2O5PQGyvvPHJm3wLC+FaD5yQMYP2AxLjxPgvzlFSyfuhdhFhKICsXh37mTsStYAZGVK35cPhp1+HaGrIo73AqL+CiGoW8F1SRRSrw8MB4DFl/A8yQ5Xl5Zjql7w8BHwdM8a6TeI6rnjtTtHOLbRnyaVetU36fuojyoiz/UFkpJ3SFp6VA1+cZgzLd8h5YS8PhBkPp5MPnjR3jK/5jIzA2jf/JUh9NrOxjma6I9FeCHKSjy+gHaMP87qmaimnpTde5zJCnenCb8sZXOBKa/pyADRTgdn+xB9oWKUaOxK2jlhCZkZ1ScPCYdo7DUmT9Dz9DC9g6a6Tn5OA0cu9D844HCOw1U5BR6ei61LC6814AzpKoDvOjmg/P0WzthWlT+7wpV7Ufrr96lU3NakL1YnTeJM6xCfTf48HGk0O1f3dXTu6vCGjm2o19OXqXVrazUU3hCZE41Rh+lCFWaFK/oxE9OZCpSTa0qIoNvWtFy32y27wuhyzGMDzhNW1aOpUbFNO/xUu+fQiWobtvO1MHTjapWqkXN+0yk1f8+oQThb1Kl3P6V3FW9Y9XfGDlSu19O0tXVrchKvT9FZF5jNB3V7Dx6deIncjIVqd/hITL4hlot96VEffY/wzAMU2B9vL6SU8ilHbR6alsqJbwfSlXPWNQaSAv/OkK+b4SK4s1JGuEovG+K/960Sg/69eQT/q/jyffP7lRBXQ/x33FikllWoM7LfIRp0pPowo9lhSnB7clz1FSavmgVLR5ci8xFRuTQeiFdiVYHVDVQ6MzC9uQgUf2GarpvR+oy/zgFar89RiXel/7sXkHTblCFE8vIskJnWuYjTMwev5u+K1eJXOp3oB9/+5N+H1KbrO0a0dzLaRO381H8Sd0rmJJIeDeUWGZJFTovI00Ucgo6Npka2QrtIL7OrDP6EPndXE/dygn7gJNSuS4r6XJkHtXFWbaF4inkzGLq4qh6T5cqDjGVaD2LjgWqJlBXNfmO02QPeypUrBGNXbGSJjSxI6PiHjTpWBifIhV9t4Nhvnyqc1mFU/8fx+dg9br8kxTph6s+j/AGVihXuy6q2H6qYX/aVG8qPw/fOHu41K8GdRLin8L7zC1EF6mJhnVKwEgTkJeE8FvncD3cGJXquaGs+r78l+tTHEPVm+LP+8bB3qU+qml2Hp56n8Gt6CKo2bAOSqTvPCSF38K56+EwrlQPbmVTx1nrs/8ZhmGYguhT1FcqiqgHuHrlPl5yNqjo4ory1qlPQyXj4k+V0WhpIOSSMvjh33uY73AHF24+h6xULdSrXgwGQkj9KBD14Cqu3H8JzqYiXFzLI+0nlc/xMKgQyjoo8PDyZQTE26D6ty4oZZKpbaGIwoOrV3D/JQebii5wLW/93jNc+sh9XZyTtlASIv2uwufRG8CqHGrXraL5DYYpoFLLtE/WqWLyFzuGDMMwzNfg89dXmTtV/lj2LWv1MwyTM6ll2pd9+4VhGIZhGCaPqWb5U+MbQpT63wzDMLnAOlUMwzAMw/z/kIfD/+ErzSRXyld4FBApTHjFMAyTc2nD/xiGYRiGYRiGYRj9qIb/sWeqCgh2DBmGYZivAauvGIYpSNgzVQzDMAzDMAzDMHmAdaoYhmEYhmEYhmFygXWqGIZhGIZhGIZhciFnnarkd4hPUgofGIZhGIZhCj55slz4L4ZhmIz061QpnmLfaHfYm5vA1LQInPv+Bf8k4TueMnwvRjdtgK6/30CisI4pQJRJiH4eguCIt0gWVuUJZTLeRvLxhkUhMc/66smI5dMa9jKeTZXLMAxT0CWexESPeqhXL3Vxh+eMc9BqouRSLM5PrgUbExvUnnoRccJahmGYVHp0qpSI3P4zhv5xB+ZNB2GwZxE83joGE7ZG8N+ovo7A3rE/YrW/Ldp3c4ah+m+YL0809g6rgSpVqmSxVEfzudeEcOnkzy9ixbAmqGBjCqtiJeFgbw1L+1roOGU/AnPRu0p8chILBzZChSKmsCzKx/tNYVgUrYIWP2zErbdCIP7serlzEGpUqYHBu14L6z5AEYFzi/vCrQSfRruSKG5rAeuyjTBsjQ/eaHXYFEFr0d05dburomr1Gqjt3gydhsyA17UXOe6I6Ryv3B/LOzoJ4bJbnNBxub8qMO4sbgsnfl21RtNx/p0mCg0FnqzrAWentlh8JzdXUBV4vKY7nKvyv1u9DX7zzRxXEs5O+RbVhLRVrVodNeo0RMseI/HLlisIz3Ae6BOWF38QI2umbjO/z5xqwa1xBwyasQlXI1mXmGH+PykQtJYvk4RypErVqnB2bYRWXQZi/NKjCHivV5OMdzFv8fYtv7x6Ct+r3rj2SHgXVV6QP8HZv+8gOiUavifO4Eme3LCSI2DvDAzqMg57X3yu0T9fQhoYpmDQo1OVjP/OXEJMyb5YtWct1uxejG7F3sHXxw8pqg7XgQkYu1eBNr8uRnd79qjWl0uBqGB/3LsfjmRjc5ibZ1xMDCVCOA154Bb0cW+K0WsvIa5sOwyfNAMzp45GjxpyXFq+Gn+/zlkhHH15Llq6tsbETT5IqtwR36vinTaG/y0j3N24BHseptdY8tdPce/ePTx9I9d04LOjfInjPzZFq3HbcN+8MYZMmo4pI9qi9NuLWDuiOTosupV+1TLxBR7f88fDl0qYmZvBzEiMxFAfHFk/G/0auGP44Rcf/q3s6BovJ4Khida+N05G+P17uM/3OIwzHA9VXlLiXeQj9T64e34lft8VniFtiS+C+O8eIfJdzo6FmuIJ9m85iDtPgvHU729s3efHV7XaCDGhAfx5E4I4A3OYmRoCsUHw3rcK0/rWR9X6Y3AkLPX39QnLU0YjhN+2+2GJKKTaZ4ZKvL57EhvnDEADtwHYox2WYZj/G4kvHuOe/0O8VJrB3MwMhvJI+P7jhd9+aouaLoOwN0Sry2TYFstv+MHPzw++x3+Ek1hYn1cklTFwxnh09uyCibMGoXLGqjKHkuG7ewn+OnwDESnCqk/uS0gDwxQQpHlZhOqfj0igI/2LkrT4QDoWx398tY06W0vJccwlSow8QP1KSsm2/UZ6KteEZj4t3Y6hyita62lAMGhOf74QVmVH7k+LG5oRJypMHr9cpjcKYb0g5tE9epIgfNCD4tUhGuAgIc7QkfpsCaB4YX2qhGA/evA69ccUFL6yMckgoyarnvOfshd3+nsqIxGRmfsc8okVVvIS76+iVkVEJDJvTqueaE5Q+b05VEsqIqte+/kzO1Uc3fujDdmKODLyXEMRH/qxbOQ0XkXkamomA8marabI975PoivjKpBEZEnWlmKSOU+nWynCVyQn/19cSCqpQOOuJAnr9Cd/tJDcDSRUcdQs6lVURFL+N26n/YZKAh3sY0MiaU2aeSf9i6SIy7SyR3kqxPHb7LmaHqt3rz5heTEbqY0Bv+0NllBw6rYnPaFdfcqQhJNSzZl3KENSGIb5qulWX8np3pxaJBVZUa/9WhVN7D3y6leBDDgxFeu9n6KE1drkgQupnpQjix573qtfvizxtLOLKXEyD1oemoMKJ098CWlgmK9bapmmxy0lGWo3rgfzcC/0re2Ouq4jsD+mDFq3c8A/k8dgW0ILzF3SGyUzXx16F4C907ujXrkiMJFJIDEwQeESleA+/gQbk/yFSzz/B1ZejIVJg6lYN9ENlpnOFtOyleCg9zhPBR6s+xXbgzlUHPkXVn1XHkbCN6kMS1SGo5W+dzvf4MianXiCUugzeyxqmQireQYVBmPOkKoQx5zH7oPPPjAcxBiVurWGk5SQEvUab/Ps3ZR5FK+4NDr3dIX4zgYsOxYtrMwLCjw5cBg+Cgc06/w92ntYQeF3DAfvf3x8i6yoG77fuBU/O0kQdXo51vhkPx5Un7CQOaBdP098I1Ig+PHjTHfNGIb5v2VSCb0XT0ZLMyVeXD6L2zl5aErxDCfmDUQb9yooaWMKA6kMxjZlUKfjBOy4Fy8EEiSdwez2LdGyZerSCl0XXMb7pZcSYXvGoG3bsdgXHolLS/qhXmlLFDIwRbFqbTH9eFha3fPmyGS0U8fVEYu8EwH5Xazt21rrN9rih21PM9ZVySE4taA/Gpa3hamhIUyLVoRHv1/xd4hW6Zjoiz8HtUGr1r2x2DtjC0sZsgdjO7RC657zcDYqh2lgGOaD9Gi5imDbYzm2zuwAR0TijZkbRm3YjTGxs/GTVyyazlmCfg6ZelTKMGzr1xjdfzmMYAsXtOs9AP2/64CGVW2giI1HnrVZmXyQjJvHT+OZ0hgNvuuJMnk1lELxBEeP3kCSpCa+G+TKdzfySNJ/+Nc7GpytB1rWzdzTk6By0wYoIU7GHZ+bH3hwWYnwf87ATy5BCZe6718gyLG8ileM4t0HwtM8AnuXeyEor2o7xVMcPOIDuV0TtK5jjcatG8BccQdHDgTo1pkxcEavLs6QyANx4dwTYWU2dA7LN5gePsZrJV/u2NvxR5BhGEZgZAkLQ051bVhYoSf5Y5zYuBvXoyxQ0b01evbtCc+KwP1Di9Cn5Ugc1B7WrohCiN9d3L3LL75XcObkCZzyjciibCTEPb6CkyeOYOMoT7SccAzxlVqjW+vKED84irm9R2CzeiizEimvg+Cniu/uPQRH8QU5xSEsQPgN9eKHwBcJmmhVlCHYNcgDrSftwEMjZ7Ts3h3NKypwa+tktG08DIcihfQaVkXH9nYIPLUNkwdOwim+86SmeIz1I77HkiO3IGncDd9a5iANDMN8nPZtK729OUHDy8nI2nMVPcpi2J/i+WpqZsiRQaMVxO4q5y/dj6Ew/E9ShlqNnkATJmgvU2jzzdQhZG9oQytD4qRVaLJPHg6+SthP31mLSFxiOJ1OTF0XTn7XrtCVK8Jy9RY9iU49YXQb/qd4voqayEBS90Xpw8q0KEKWkYdqeJ3HMgrhI9EM0+OoUNXONFa17eNG06AOtcnO0JhKtZhDZ1/l7ITNabw6Df+TutAv/jF0ekRpkkjK05iLqiExuR/+Jw/8jeobiMlu4FH1UBnFi43U1owjae055Je2L7Me0pcqYf93ZC0SU/EhJ1Wf9AjLE4b/SWuOpcPeV8j7/DHymtubnC1EJCrsSaseZHFAGYb5aulWX2Uz/I/35sRQ9VBv6y7b6bWwTtvHh//F0atXcZnqkyg6/b0jSTgL6rpT9YzD+z4cr5wC5ruSlN82zqQ6DT8QLAxbTqT/JlcjKWdC7TdnHqyo29C7qEP9yF5sQFVG/UMv0oIlkP8KTyoskpLz9FtaQ6RjyXtaLTLhpFSq/wF6rkgh/6WNyJIPV27w4SzqFzb8j2FyK7VM03eMlZZonJ7+Iza8aoCZy4agbBZX30UGpjAxBOQPTmHv9dfsNvKXRP4Yx5YtwIIF2stv2O8nXH9TRCMqRgGCGcwtOM26vJAUjeg4JUSW1rASzhlF8GYMcq+LunWFpV47LLyu3xOzFBeLd/xpLTI2hWlW56KpMQqpLmy+i1eH0yAk3N2L31TbvmgZ1h/wQQRnAVsLwjs+jTmXX/GqGKHhqKGoIw2E17J9yP1kTQo8PXgI/6VYo1HLb9VDMUXWzdHKzRjy20dw8KFuuZYzNYExR0hK/PjLFLILm3LjN7R1qwu3Bq3Qd/phxNYcij9P7MBQxzy7ZcgwzNeG5Ii88w9OnDiOo/u8sHRiZzTosQ5PTOph7OSOsBKC6ccY1tbGmYbqWMC1TiVI8A6vX8Ugx0UrZ4pG8/ZjRfsSwh12A1R1cYIFl4SXkTlpB8Xi1I7DiJA1wPeTGsMmLdGGqNi/PxqZyXHv/Dmkz+djgrrTvTC/mTmCvUZi+MxxGDT9HFJqTMCm39ugSC5afQzDfFiOs9fbszPxw7pIuM9Yhl7JBzH/x0HoP3Qi/jj7LP22uEUHTJrsAevII/jJzQFl3Dpj9ILtuBKWd2+OYHJI1gi/P3iBFy+0lzBs6So84cRJIJWoOlOJSEhI64XknkQKqZgDJSYgQagExLaeGLdyFVatWokpreyRkyY0Z2gIA1WnKTkxy3ddKRMSkMhvhiqcatSIhgiWXbwQqtr2iGD4X96HRd1tEbBrBjp3nI3/cnya5le8GuIKA/FD+8KIOroC63V47umDVEP/DvkgxaIBWjUy1awT2cKzlQsM5bdx5OAjnRoBFKfqrHIwMtZ6mC0b2YWVlO+O+ct/w9Q+tVGYb4AorGvDw8ki54UUwzBfP4rB6ZntoHqWqU3nvvhp4VG8dOyDpccPYLyTgRBIf2/vbMe03k1Qo1xxFLGyhIW5OeyGHUMSX09oLjznEFcIxUvaZazHpFJ1B0uhyEF5LQ+CX0AsKOksfq5gmT5jrGqx648DMXx6X/N1jXa9J6mIERv+QI/ikTg4Zymuyppg3uZpcPt48cwwTC7krL0SdwFzRq1BhNs0LG16Fj0adsWUlV7YtmEhRrVogcmXUl+kY4Ra407g1pk1GNfZCdL7h7FiYi/Uc6yINgsuIyrHl4KYXOOkMLK0gY2N9mIN09Q6SmSNYrZG4BTP8PjxByYU0JfEHna2IijCg/A49TSxcELHIcMxfPhQtKtmmaOTUmRhi8KFOCjDnuFZFvWWPOgJQpUiGNuV0LrSx+8GmQmsVdtetAQqunXEz+v2Yca3Bki8sxt7buR8u/MrXg1rtB/dDxUUN7Bh9YVcvWhbEXwIh32S+I6tFCE7VmP1atWyBkdemvL7KQW3jhxE4Ed7VQo8uReAtySGg2NZYV12sg8rKloHPb//GXM2n8KOoSUQuncsxmwOyfkVY4Zhvn6cKRqM98KOHTux++BJXAkIR/C1jRhV1zrHF1ySbv2K1g16Y+6O64ixqYb6zTzRomVLeDoXhTgPB2bkCWUikpL5Tp6sBFw8UyeRSJ9MolPXbujasjoKZ0q3yKQo7Cyk/H9xkBStjKp2Ms0XDMPkmxyUSfG4NGcU/gh1weTlw6DYtQ5nElwxy+cNYgNWornRA+zZcVVrMgAZ7OoPxoKdF/Ho+VN4e42Hh+UzHJs2HL/dyOVVdiYfGaBmraqQ0RucO3Y+72ZqNHBCvVrm4OIv4/g/b4SVecCwKqqVk0Dx1BsXn2buBcjx8N/zeKIohJruLh9+MbW4COyL8iEoEfF5eYcuj+OV1R6OkY2MEbxrNY5G5zQ+BYJVQ/+SCCn3t2PCiBEYISwjZx9CiIJff/MIDj3+SK8q8Tq8dt2GXFoNjZvYCyuzoVNYc3hMGItmZtE4uWgpLmd42THDMP9XOCmKu3ZB9+7d0KVdc7g6WvGtitxIwplVK3ElxhItVlyHv/dx7Nu5g++07cDGYTU/26Q4lN3VI4ktbAvzTTVRefRaqUln5mXrgm4opX1rTBmOvT/0w1I/M3h09YDl/RXoO3w7X6YL32cj2zQwDKMTvTtV8d5zMWrFU9ScuAKjq4jxPPwlYFsD9SuZwKBETVQvxuFtdHTWM/sZ2MG191wsHlAZEnkwAoPy8A4Ik8fEKNmpOxqYKhG6fRrmXkydRii3LNFmYBeUEL3E/llTcTx11qLcEjuibetqkKb4YP3iv6E9eZMy4gB+XX8bCqvm6NPJ/oMnvTxoF3acjwVnXhNu1VRX+fJGnscrKoleo7uiePRxbNif8WXAOlME49Dh/5Bk5IFZp6/gyhXtxRv7R1eHJPkGjhx+kv0QwNi72Di0L5b5KWHXeRwGV/pAk0SPsKJvemJMr1KgRxuxYNszdreKYZg8kojnz19BIS4JF3eH9A5a0mMcPe3/iV/fIIKRsRE4ZSiePM3mOWKRHdzqloU44SK8Nvp9YPbaVMm4v2oARmwNgW2XpfDatgXLuhVD2O7v0Wfx7SxGNuiQBoZhdKOarUL45+Pir9LUGkZkWvcXuqWeuU1O9+e7kkziQB3mb6Ot8zqQg9SA3BYE8N8QJV2ZT53bDaSJC1bRxh376fCRfbT599HUyF5KIvMmtCKradqYHNH5GKbN/leSPPoPpaFDtZfhNGVHgBBOJYFuLfIgaxFHIlNHajV6Ef21+yAd3LOF1i6eQgPa/kA706ci0p3iOR0c7EiGHEeG3zSkQbNW07b9h+nQrrU0vrEticUlaHja1ICps/+JqYRH/0zpHUrDflpPN4Vpj1QvFR5YWkqcyIKcvptN6/fsp11/TqOOFUzULzButsI/bYak1Fn6DMu3pMGquIYMpO/a16dyFmLipPbUdk16WH3kNF7dZ//TyjMpd+kXF0NSPUqGHMz+Jw/6nRoYcmTU9I8sZ+dMuT2dnPhtMaj/Gz2WCzP6iYtQne5DaOjg/tSz3bdUwZrf35yEbBvOoHNpL2zWJywvq5f/8uQPfqNvjTmSVhhD6okOGYYpEHSrr7Kf/S8rSf+todHDhLrhu3pkJ+bLLscWNEhdVwynqTs17RJNeVpR/WLxkq2n06b9B2jbsnHUobIFSY1N+HpJRo1WhKXNDKh7vMLsf6Ii1PdQxvQmHBtIxURScp2fGjaVgkLXtiRzvi40rtiZZq7fS4cP7aUtqxfRqn/S0yB//Ce1tBbxdUgxchswi/7ccYiOHjtC+3dspD8W/kJb098GTzGXplBNVblZqj8deK6JQREp1I0GFen7E68yzXqoWxoYhsleapmmR6cqgf6bXouMTVxo1vXUBi+fHSMO0JAKRpqGHScii9qT6MwbzXcpNxdQY7tCJOLUN640Cx/GtKwnTTz0NEeNViZruh1DFaFTlXo8MixichjxrxAuVQzdXD+U6hfPfBylZOE4mPZlNZ+tLuQhdHJOZ6pmxRf0Wmng+ArNplpPWuefenakdqq0fltr4Sx60B6tuW3j/TbTYJciJE1LK1+5WDtT75XXMrx5X9P5SQ8jkhiSeTFHcm0/ilacCeWr3ZzJabw56lTx++b5lk5UWMT/lt6dKjkF/d6Ab0AUIo9lT7OuOFN8aHIV/vgYNqDfg+I0HaW07TIg0yKlyLlxL5q0/jKFZ8jMQqdKp7C8bDpVqmn9D/SxJ7HIktqsDxXWMQzztVOVjx+nX6cqfnsnMtGuozIsYio18gylXaqLOEpjalvxHSvhe77esas/mrbvG0/VpBk7VbrHm5NOFS/Rj9b1rECmIk4rXinVmOGr1UZS0KsLC6lTJQtSzfOUIQ2cCXXarqkEVe2xAWX4MlvqSMNPvM5Qrr/5ZyRVkHEkLtae1gdmKoR1SgPDMNlR5RkVTv1/HJ9L1ety6N0z+Jz3QaikDOo2qI6i2gOelbEI9r2Be8GvEK8wgLVDNdR2LglTvQceMh+S62P4MYpYPL11HfdCoyA3tEaxUpVQvbwNcj73kiD5JQKu38bDiLdQFCqC0lWdUfUb05w87KclCc/vXsXNx2+gMC+NmnWrw+6DD1IxDMMwn0q+11e6UEQj8Jo37j6Xw6KsC9yqFc19fZZjCkQH+cDnbiiiFTJYFCuH6s4VUSRzvaWMQ4ivD3yDXiKRM4CRsQWKlCiHCo52Wb5KRD86poFhmPeklml506liPjt2DBmGYZivAauvGIYpSFinqoD5fMcwGbe8ZmOXvy6P90pQqdt09HH+WqZ2/dq2rSAfC4ZhCgrW5mAYpiBhnaoC5vMdw3fY0t4KfQ7p8kZbA7TzeoODvYUXDH/xvrZtK8jHgmGYgoK1ORiGKUhYp6qA+ZzHMCn2NWISdZn0WgRDM60XDH8FvrZtK8jHgmGYgoG1ORiGKUje61QxDMMwDMMwDMMw+snQqVJ9YL5e7BgyDMMwXwNWXzEMU5CklmlsYnOGYRiGYRiGYZhcYJ0qhmEYhmEYhmGYXMhZpyr5HeKTdHkYnmEYhmEY5v+PPFmX11tkpEiMRWyiQviUtZzEyzBM/tOvU6V4in2j3WFvbgJT0yJw7vsX/LVmb1aG78Xopg3Q9fcbSBTWMV84ZTLeRoYgOCwKOk0alx+USYh+zqch4i2ShVVftK8tvQWWHLGRwQgKCsbz6ER8tss8+XU+5EveTEYsn9awl/H4cLONYRi1xJOY6FEP9eqlLu7wnHEOH35xRSzOT64FGxMb1J56EXHC2mzJQ3B8Tne4OligkJEZzIwMYWLniqkXMpcoesabQ0l/T0Ij94b4Yd/rPC1X8ytehvlS6NGpUiJy+88Y+scdmDcdhMGeRfB46xhM2BqhyRzKCOwd+yNW+9uifTdnGKr/hvlSJT45iYUDG6FCEVNYFi0Jh28Kw6JoFbT4YSNuvRUC6SUae4fVQJUqVbJYqqP53GtCuHTy5xexYlgTVLAxhVUxPg321rC0r4WOU/YjMCet0/iDGFkz9TeroqpTLbg17oBBMzbhamTmJuTnT68iaC26O6f+Jp9eZ1c0atUFA8cvxdEA7eoyCWenfItqTl2xOjDzdigQuLornKp9iylnNdX8e/FWr4Ha7s3QacgMeF178Ykb0wo8XtMdzlX5tFRvg998s7rCquexiLuHnZM7oqadOSyKOaBMGQcUszKBsbUzJpzT5R1dWfkCzl+BbnlTiZc7B6FGlRoYvOu1sO4DFBE4t7gv3ErwabQrieK2FrAu2wjD1vjgjVbrJr/OHd3PdZ4++TjxOMa4VBXCZl6qwmXMcT6QAv4rOsKpihO6/hmYzTa8wf4RLvxvdcKK+582hzDZSL6A6R7V4NRhGe5lLjYUAVjZyQnVPKbjvX5HnkvGu5i3ePuWX149he9Vb1x79OrDeUH+BGf/voPolGj4njiDJx+8sZSE/2Z3QJcZe3BPWhPdv/8ZY38YhI6uxVGIyzSZh17x5pziZQCueF/BvYiclqdZy5t45QjYOwODuozD3hesa8Z8WfToVCXjvzOXEFOyL1btWYs1uxejW7F38PXxQ4qqw3VgAsbuVaDNr4vR3Z49qvUli748Fy1dW2PiJh8kVe6I7yfNwMxpY9DH3Qh3Ny7Bnoc5KakViAr2x7374Ug2Noe5ecbFxFAihNOQB27hf68pRq+9hLiy7TBclYapo9GjhhyXlq/G369zUFgqoxFy7x7uhyWikLkZzAyVeH33JDbOGYAGbgOwJ0w7zi8gvYkv8PiePx6+VMJMnV45In3/gddvP6FtTRcM2hsiVNyEmNAA3PMPwouEzDNmERJeBMH/XgBCY4TvMsdrJEZiqA+OrJ+Nfg3cMfzwi093lVDxBPu3HMSdJ8F46vc3tu7z46vEzPQ4Fsl+WNquAXr9egKRDq0xbMIMzJk9A1PGjUCvZlVha5jT10N8AecDT5+8KX/9FPf48/3pG/mHj6fyJY7/2BStxm3DffPGGDJpOqaMaIvSby9i7Yjm6LDoVvpV9/w6d3Q+13n65GNOBiMz4TgZJyP8Pv934ckwFo6bmZGMDyRG2ZqlkfDgDg5vP4SnWbWGo/7Gzl03EJBcBrXLiIWVzGeljEVYwD34B0binbAqDSXixWM+vwaEITa/CzPDtlh+ww9+fn7wPf4jnHQ5PSSVMXDGeHT27IKJswahcsbiI6OkC/hrky+S7Hpio/cpeK34DYuWrobX/r2YUj/TiwT1ibfASobv7iX46/ANRKQIqxjmS0GaeU1V/3xEAh3pX5SkxQfSsTj+46tt1NlaSo5jLlFi5AHqV1JKtu030lO5JjTzael2DIkUrw7RAAcJcYaO1GdLAMUL61MlBPvRg9cK4ZM+XtFaTwOCQXP684WwKjtyf1rc0Iw4UWHy+OUyvcn0czGP7tGTBOGDPmI2UhsDkKzBEgpOjTPpCe3qU4YknJRqzrxDKcLqLyG98ntzqJZURFa99vO5K1Us3fPqRxUMOBIX6037o1TrEuhgHxsSSWvSzDvpW6CRQndm1iSpyIb6HNTEknW8cXTvjzZkK+LIyHMNReTkEOeA/NFCcjeQUMVRs6hXURFJnafT7cyboMexiDvcn4qJxFSsyzYKy9Nt+Pzng355U0HhKxuTDDJqsuo5/yl7cae/pzISEZm5zyGfWGElL/H+KmpVREQi8+a06omm4M6vc0f3c52nVz5Op4hcTc1k/N81W02RmdOYdInGOKr2rQctffL+BkTv6k7WIglVmnCVkoR1TP7Rqb5KOEoDVGVGlUn033vF3i2aVl1KoqID6GgO8lpOyQMXUj0pRxY99ryXP3PsxZ/UjD/fDVqupzfCqs8tfkt7MuRk1GhF2AfLFn3lTbzxtLOLKXEyD1oempepY5icSy3T9LilJEPtxvVgHu6FvrXdUdd1BPbHlEHrdg74Z/IYbEtogblLeqNk5qs47wKwd3p31CtXBCYyCSQGJihcohLcx5/It/HATHYUeLDuV2wP5lBx5F9Y9V15GAnfpDIsURmOVvl7pzHx/B9YeTEWJg2mYt1EN1hm+jnTspXgkFfjR2UOaNfPE9+IFAh+/DiLuyQf90nTCxNU6r0Yk1uaQfniMs7ezqvhF8ao1K01nKSElKjXeCvc1MpfCjw5cBg+Cgc06/w92ntYQeF3DAfv53TMihKvHwfhtVKEEs41YPuZbojnz/mQX3nzDY6s2YknKIU+s8eilomwmmdQYTDmDKkKccx57D74LP1O0Xvy69zR41zPbT6W1UaHVqUhTrqGI8fCMt1ti8W/h88gSuSINh2d+ZqO+Wolh+DUgv5oWN4WpoaGMC1aER79fsXfIVpnTKIv/hzUBq1a98Zi74ytEGXIHozt0Aqte87D2ShhpT6SzmB2+5Zo2TJ1aYWuCy5/8FlLZXIyUlR5SiKBVLPqffrGq8t+SJX8FH8vGoRm1YrDspAMBqZFUHniOSTnNp/rGq/iGU7MG4g27lVQ0sYUBlIZjG3KoE7HCdhxL14IxJdkRyajnXrbO2KRdyIgv4u1fVtr7ZO2+GHb0/RyTMd4GSYv6VFDi2DbYzm2zuwAR0TijZkbRm3YjTGxs/GTVyyazlmCfg6ZelTKMGzr1xjdfzmMYAsXtOs9AP2/64CGVW2giI3HJ2nXMekUT3D06A0kSWriu0GufFPpc0jGzeOn8UxpjAbf9UT+j7RR4sXDx+qGuK29HfQfLfGp06tiBEsLQ3B8Dsm7PKJE+D9n4CeXoIRL3fcvfuQHxVMcPOIDuV0TtK5jjcatG8BccQdHDgTkqHOrKoMKly+HImI5bq6fBS//z1Ex5tP5kF95M+k//OsdDc7WAy3rZu7pSVC5aQOUECfjjs/NDzx4n5/njq7nem7zsQwuHVuhlDgBV48cw3PtXlXcGRz+9xXEFdqhUw3WpfpqKUOwa5AHWk/agYdGzmjZvTuaV1Tg1tbJaNt4GA5FCgfdsCo6trdD4KltmDxwEk6ldp4Uj7F+xPdYcuQWJI274VtLYb0+FFEI8buLu3f5xfcKzpw8gVO+Ee+Vd/Ibi9HpW83EF/U7LMctPkDK5XlomjYZRj24N5uOM6mZUsd41XTdDyryQPzVoz7aTPDCTUVFNOv+Hbo2qw5LvjTIVd2jT7zyxzixcTeuR1mgontr9OzbE54VgfuHFqFPy5E4qB5KrUTK6yD4qbb/7j0ER/FdJ4pDWICwT9SLHwJfJGjiVNEpXobJY9q3rfT25gQNLycja89V9CiLYX+K56upmSFHBo1WELtLm790OoYJ++k7axGJSwyn04mp68LJ79oVunJFWK7eoifROTlYwvApSRlqNXoCTZigvUyhzTdTB9W8oQ2tDImTVqHJPlkN4skFYdiQtOZYOux9hbzPHyOvub3J2UJEosKetOqB9kn6+dOb9ZAoHp+vhpaRkMi6C21/rVqRk+F/HBWq2pnGqrZn3Gga1KE22RkaU6kWc+jsq0+TGeWBv1F9AzHZDTyqHiqjeLGR2ppxJK09h/wylBe6HguePIi2dC9FMr4Vzhk5kMeQhbT/zmvK/ajjz3w+6J03dRv+p3i+iprI+DzhvogeZ1VGhywjD9WQOY9lFMJHkl/nju7nOk+vfJzug8P/VJIu0I/lJMSZtqJ1WmMY444MIDuxlKpM9slyWCGT93SrrzTD/8RF3GnA+Ex5cvxA+raoOMPwv6hD/chebEBVRv1DL9IObwL5r/CkwiIpOU+/pXV8Y8l7Wi0y4aRUqv8Beq5IIf+ljciSD1du8OGszx+ePsP/PhQ26eov1KxaZapcmV/K25OJCCQy/4YqqT4LS5U6P9OJ1LJAy8fSoPt+UFCEVwey5tc5DjxAoVrZKnfD9PSNN45evYrL9DtRdPp7R5JwFtR1p+p5E226Dv/TN16GybnUMi0XnaooOjWyPMksm9KKbCo5itpKHS04Etu3paXXXuVBw4fJjk7HMPovaq1qrFSfSjeF2kUeMJ9cpeqLR5pFXIKGp7Xq9CE0SlPjybAYUDsvofjnG8W/1ZcSpG60IKueeG4IjTHt3+bE5lS28XBa6xOVqXD9/OlNbcCaNZlJh44fp2NH9tLmJROoU1ULEoksqP78W6Q5EjnpVL2/XVwhe3LtMZuOPf0UTUc5Bf5WnwxERei7fTGaVYpwWuNpwndIXOgXf+19qeOxSCUPp3NLB9G3JYyI48NwYgsq3/In2uDzOtMx1sdnPh/0zpu6darkgQvIjY/DoPmflOWjYlHrqaXqd+vMowB+c/Lr3NH9XOfplY/TfbRTxf/C+dFl+QaVObXdGCnEE0/HBxUnsbQaTbn+KfIFo6I6ph8ldKq0z4PMS3qnKoZ2d7ciUaFmtDo808GP20Vd+XaI6hm9p9pfpfjTiuaFSSS2pw7TfiQ3MxGZ1JpKl7WeO8wsrzpV2hShy9UXNgzabuK7eh/34Xj12A+KMFrVjC9DjZrSqkydk1x1qvIo3jgvTdjGK8Mzhc3dM1XZx8swOacqj1Ry/FTC27Mz8cO6SLjPWIZeyQcx/8dB6D90Iv44+yz9lrRFB0ya7AHryCP4yc0BZdw6Y/SC7bgSllfPiTB6kUghFXOgxAQkCHe+xbaeGLdyFVatWokpreyR65E9skb4/cELvHihvYRhS1fhCRFOAqlENUNbIhLem8kub0jKd8f85b9hap/aKMwlQWFdGx5OFlmPdf3s6SXEnJ6pHiveqk1n9P1pIY6+dESfpcdxYLwTMs39pAcRLLt4IVS1PRHB8L+8D4u62yJg1wx07jgb/+V3FlQN/TvkgxSLBmjVyFSzTmQLz1YuMJTfxpGDj95/hudjxyKVuBgajF6H848CcWXbbPR1M0XIiSUY1PBbjDryHLka1PG5zod8ypucoSEMVD3P5MQs33WlTEhAIr8ZqnDpEyfm17mj37muVz7WiQHqdGwJB3EMLhz+G+pRX4mXcfifCIgqtUWn6v+XU6l98SQVf8K/EZnyZMQ5jKui9QSSPAh+AbGgpLP4uYJlhpk7ze3640AMf/a95v9OOw9IKmLEhj/Qo3gkDs5ZiquyJpi3eRrctJ47/Orosx9S7sPvQRLEJarDySbnueo9OYj37Z3tmNa7CWqUK44iVpaw4NNrN+wYkviySdNezZn8ipdhspOznBR3AXNGrUGE2zQsbXoWPRp2xZSVXti2YSFGtWiByZdSJ0A1Qq1xJ3DrzBqM6+wE6f3DWDGxF+o5VkSbBZcRlavWD6M3iT3sbEVQhAfhceohsnBCxyHDMXz4ULSrZpmLBouAk8LI0gY2NtqLNUxTW0wiaxSzNQKneIbHj/PnBSOionXQ8/ufMWfzKewYWgKhe8dizOaQrBvbnz29HEwbjIfXjh3YufsgTl4JQHjwNWwcVRfWOh8MVeXAgUtrFGtwMhNYq7anaAlUdOuIn9ftw4xvDZB4Zzf23Mjfl7sogg/hsA9fsdpKEbJjNVavVi1rcOSlKWxEKbh15CDee+XWx45FZrJiqNNzGjZe8Me1NZ1RMtkfa8f+hiu52bTPdT7kU94UWdiicCEOyrBneJbFAxjyoCcIVYpgbFeCPy7CSl7+nDv6net65WMdGdTpiJYlxYg5fwT/8L2qJO9DOBkmQqW2nVCV9am+SJzYEKaFM+XJwuYw1L7KoExEkmoGBFkJuHimTlyQPoFBp67d0LVldb5zLoQXiEyKws5C1TnjIClaGVXtvvJn6vTZD5SABL53wRkawSjXFb8WPeNNuvUrWjfojbk7riPGphrqN/NECz69ns5FIc50vPSRX/EyzIfkICvF49KcUfgj1AWTlw+DYtc6nElwxSyfN4gNWInmRg+wZ8dVrYeeZbCrPxgLdl7Eo+dP4e01Hh6Wz3Bs2nD8diPLxyyZ/GLghHq1zMHFX8bxf94IKz81A9SsVRUyeoNzx87n8wyQ5vCYMBbNzKJxctFSXH7vZSe6yO/0cpAWd0WX7t3RrUs7NHd1hNV79ToHo0KG4CgWb99mblIq8eZ1NJQic1hmnoYuM3ER2Bc15Cu9RMTn011CDQWCDx7Cf3zFmnJ/OyaMGIERwjJy9iGEKPj1N4/g0OPs55vTjwmq9p+JAdUkkD+9gzv5erUmn86H/MqbhlVRrZwEiqfeuPjeC5rkePjveTxRFEJNd5cPv7A9T84dXc71rORFPhYYuKJDy5IQRZ/F0X9f4uqhkwgVVUG7TlVyMPkF88WQ2MK2MF/+icqj18od2MF33DMvWxd0Q6kMHbFw7P2hH5b6mcGjqwcs769A3+Hb+fJJ+P5rpM9+EFnC0kwEZdRLvMqwzQqEh+fiJfF6xZuEM6tW4kqMJVqsuA5/7+PYt1OTzo3Dan40T1K2RX3u4mWYnNK7UxXvPRejVjxFzYkrMLqKGM/DXwK2NVC/kgkMStRE9WIc3kZHq6+dv8fADq6952LxgMqQyIMRGJS/V8uZzCzRZmAXlBC9xP5ZU3FcexagT0aMkp26o4GpEqHbp2HuxZzMW6s70Tc9MaZXKdCjjViw7VkOrnJ/2vRmTYrylcpCqniCc6fuZZxGN/4aDp0KAZk5o07VD7dQ5UG7sON8LDjzmnCrlu3kvbmnCMahw/8hycgDs05fwZUr2os39o+uDknyDRw5/CTnFXdmcY8RxJ/PIrMisDXJwbUineXX+ZBPeVPsiLatq0Ga4oP1i/+G9oRXyogD+HX9bSismqNPJ/sPVgaf7NzJRu7zcSoD1O3YAiW4Nzh7cCV2nQwGV7UtOv1/vkW14BDZwa1uWYgTLsJro5/WRd3sJOP+qgEYsTUEtl2WwmvbFizrVgxhu79Hn8W3kSiE+urosx9kFVC9khHft7yMs36ptYoSURdnove8q5pp3nNCr3gT8fz5KyjEJeHi7pD+OoOkxzh62j+bWWJFMDI2AqcMxZOn2b39NyfxMkzucaoHqziO02186btrmFa/EZYZTMaFs1PgZKBAwK/uqD7tOVrNmYtOtBdTZxyH3S++uDC+PBRXf0WvXwNR1q0mypcoCmsTQtSjC9i8eBXOxTXAspsnMbJ0rp/iYXg6H0NlJA4N+xbd1z8CijfAd4O6waOqPUxSnuPy2mlYfM4AQ/5+iFWNsxtzlZ3XWNfCHkNOF4VHb084Zmjfi1C44Wj80r288DkRt39riSYTziHKuBxaDBiMTvXKwYqLxYuQAFzlG2/N1i9BN33HecduQlub/vjbdQkenfmRb6BqViseLkajGuNw5ZufcObWYrirL8l//vQq/H+Bq9MMBHXdi7CtHT54p0AZvgVdavTDgbcOaDFqDL6rVwKFYgNx5q/F+PPcG1SedBqX57qp322kiXc6/Eq3QO+G30BEcsS/eIhr57wRGF8UbVaewr4hFfPtap3iyRI0rvQzfOqvxMOTI2CfabfIfWegdu05uO+6CP5nf0Zpsa7HIgkXfumNNS8rw6WaI76xMYMBl4g3T2/hxKY/sfvWO1SdyO+HeZr9oJ8v4PzVK28qEfFHMziMPIeiHn3QImOCwRnVxpCFA+HMH2Tl68MY4tIZfz01RvWeYzCyXRWYvr6FXUuX4MBDQzRddgHHRmrOh/w6d/Q51/XKx8k+WDv+L9xUPRiW/BAntpxFuJ0Herdw5BtSHAxrDMDSIbU1EaRKOotRFZvij+cGMExMQaUZN3B1RlV29foT0qm+SjyGgaXaYkvhCbh8ax5qax8g+W1Mr+WCuZG9cfjJBrTizwVF0Bq0dRmBEzG2qNt7GPo0dUJxMxGSY14h4lkYzJtOQC8nTSSxl6fCo/k83CnSD7uvrEd7WxGUL/h8UpfPJ2FlMeLgRSz3tOZzvuoUW4vxf91UP3uIeD8c2eGN12U80dujBMR8CBuP0ZjZrbz6mUd9wqZShq1Ak9I/wNtzE14d6ousHunSJ17d94MSL3f1QrWeuxFftTdmTmgNq8cHsWTxXsQ6VkHCjbuotPQJTo20U+8H3ekTbzKujndC/d8CYd9qEmYNcIb0mTf2rl2Ho0/lEL9LhtvyzGlQImxdG1QeegLyCp0w7ufuqGEDvA1/gtgyPTG0aU7jZZicSyvT+P9TZVPVPx+RQP9Nr0XGJi4063r67HCKiAM0pIJmFi5wIrKoPYnOCK8FT7m5gBrbFSIR/1uq31AvfBjTsp408dBTNn1tHtLtGArkIXRyTmeqZiXVHDdh4TgZ2VTrSev8c3JkPjR7mpgcRvwrhEsVQzfXD6X6xTOfH1KycBxM+1KnV9aHMGuYanaj4AzT+ryhA33sSSyypDbrQ4V1nz+92U4znSUFRZ6dS23LmWT4fc7wG/IYt5+CtGcdzzCDG0ciiSGZF3Mk1/ajaMWZUNIKmg/kFPR7AzLkCpHHsqdZz66U4kOTq/DnnmED+j1INYOersciibxn1iNbQ1GG81a1jVKrKtRh5nEKyfGEfF/A+auic95Mnf1P67e1Fs6iB+3Rmhos3m8zDXYpQtK0tPL7zNqZeq+8RlFCGJX8Onf0Otf1ycfx26mTCSekN/PCkUmn7ZpwGSTSme9LEd8AJU5ak2bdZTXRp6Y6Ph8lzP4nrTKJ/st8iFJu0bTq0gxTqqvyxKsLC6lTJQtSzfmS4VzgTKjTdk2GULVZBpTh85fUkYafyDhj6Jt/RlIFGUfiYu1pfaDmR+O3dyKTzPGlLWIqNfJM2syV+oRNpcvsf/rFq9t+UFOE0P4RTmQu0uQh1SybVfpsoNsXJ1EVaU6nVOfpEa8i4iiNqW1FktS08mWdXf3RtH3feKqWXRoS/WhdzwpkKsSvWaRUY4ZvWrsyR/EyTA6pzjEV/e5UZefdM/ic90GopAzqNqiOotoXTZWxCPa9gXvBrxCvMIC1QzXUdi4JU3Z5IE/l6Bgmv0TA9dt4GPEWikJFULqqM6p+Y/ppr9woYvH01nXcC42C3NAaxUpVQvXyNtD3Ptkn87nTK49C4PX/4BcaC5jYoaKLC8pb/X9dY1e+i0CA7z08johCIgxhZe+Iak7lYfM5Tpr8Oh/yJW8m4fndq7j5+A0U5qVRs2512H3wlhHD5I9ctzk+RBmHEF8f+Aa9RCJnACNjCxQpUQ4VHO1g+v80MEbn/SDHy3uXcOVRPKwquqFuecsMd9JyTo94FdEIvOaNu8/lsCjrArdqRXUoQxWIDvKBz91QRCtksChWDtWdK6KIdpmWo3gZRn+pZVredKqYz44dQ4ZhGOZrwOorhmEKEtapKmDy9hgm45bXbOzy1+VxTgkqdZuOPs4Zn+nIvS8hDfooyOnlYGwMxMfrcn6xY6HxtZ0P+ijI28Z8CqzNwTBMQcI6VQVM3h7Dd9jS3gp9Dunylk8DtPN6g4O99Z8a4MO+hDTooyCnV4YaNYCbN3WZrZMdC42v7XzQR0HeNuZTYG0OhmEKEtapKmDy+hgmxb5GTKIuExeLYGj2gRe05sKXkAZ9FOT08qcXf36xY6GPr+180EdB3jYm/7E2B8MwBcl7nSqGYRiGYRiGYRhGPxk6VaoPzNeLHUOGYRjma8DqK4ZhCpLUMo1NbM4wDMMwDMMwDJMLrFPFMAzDMAzDMAyTCznrVCW/Q3ySLg8pM0wekydDl4mcM1AkIjY2EQrhY5ZyEu/n9LWll2EYpgCQJ7OSl2GYrOnXqVI8xb7R7rA3N4GpaRE49/0L/lqz6irD92J00wbo+vsNJArrmC+LMmQrhjSsj9a/XIIuE2Tnj0ScnOiBevXqpS3unjNw7iMzNMeen4xaNiawqT0VF+OEldmSI+T4HHR3dYBFISOYmRnB0MQOrlMvCN+n0y/eHEr6G5MauaPhD/vwOpfXI3Kc3jxMA8MwzBcl8SQmeqTXKfXqucNzxjnoMvG/bmJxfnIt2JjYoPbUi8ivqoJhmK+XHp0qJSK3/4yhf9yBedNBGOxZBI+3jsGErRH8N6qvI7B37I9Y7W+L9t2cYaj+G+ZLQwmhuOvtDZ/AN5rj9pkkv4vB27dv+eUVnvpehfe1R3j14VtJeHL2b9yJTkG07wmcefLhq4VJ/81Ghy4zsOeeFDW7f4+fx/6AQR1dUbxQ5pku9Ys3xxQvEXDFG1fuReSyks9FevMsDQzDMPlNgaC13eFcpQqqqJaqVeHs2gitugzE+KVHEfBeryYZ72JUdQq/vHoK36veuPbo1YdHKOhD/gRn/76D6JRo+J44g7ypKuQI2DsDg7qMw94Xn6tG/hLSwDAFgx6dqmT8d+YSYkr2xao9a7Fm92J0K/YOvj5+SFF1uA5MwNi9CrT5dTG627NHtZgPMUTb5Tfg5+cHP9/j+NFJLKz/EAkqD5yB8Z090WXiLAyqLBHWZyUJF/7aBN8kO/Tc6I1TXivw26KlWO21H3un1BfCpNIn3i/B15ZehmGYnEl88Rj3/B/ipdIM5mZmMJRHwvcfL/z2U1vUdBmEvSFaXSbDtlh+g69T+HrF9/iP0Kla0YekMgbOGI/Onl0wcdYg5E3Rmwzf3Uvw1+EbiEgRVn1yX0IaGKZg0Kv3w3F88OQEvFNdoYmPQnQiUMjYCHhxGBN/3onkVvPxe89vcvigFsN8mPibtvhlzwnsnt0aH+63xyDoyQsoJNXRsLHNR89H3eP9Mnxt6WUYhskxzhRN557B5cuXceX6PYSG+WJzv/JQBGzCD1MPI1oIlv/E+KbtL9hzYjdmt7Zn7RyGYd6jR7kgQ+3G9WAe7oW+td1R13UE9seUQet2Dvhn8hhsS2iBuUt6o2Tmq0PvArB3enfUK1cEJjIJJAYmKFyiEtzHn2Bjkj8jsYRD5LlF+K5uKVgWMoCpnRM6zjqFiPfu/icj5NQC9G9YHramhjA0LYqKHv3w698hSB/9kAjfPwehTavW6L3YO+NxVYZgz9gOaNW6J+adjRJW6iMJZ2a3R8uWLdOWVl0X4PKHHghTJiM5RfUOFP58k2pWvU/feHXZD6mS8fTvRRjUrBqKWxaCzMAURSpPxLnk3LyXRf/05n0aGIZhPjOTSnw9MxktzZR4cfksbudkLLPiGU7MG4g27lVQ0sYUBlIZjG3KoE7HCdhxL14IJEg6g9nt08vdli1boeuCy3wJm5kSYXvGoG3bsdgXHolLS/qhXmlLFOLL3mLV2mL68bC0oYhvjkxGO3VcHbHIOxGQ38Xavq21fqMtftj2NOPQxeQQnFrQHw3L28LU0BCmRSvCo9+v+DtEqwZK9MWfg9rw9W1vLPbO2MJShuzB2A6t0LrnPKiq4hylgWGYDyPNG/hU/3ycIoxOzu5KbhXLkmONFjTa6w6FHh1CZaSFqeWaxyQXgqVRhNLWLnYk5gqRfa1W1HPAYBo04Dvq1PJbch22h2KEYEzu6XoM5QHzyVUqImtnV3I0kpBl5ebUs29ncrWXESeypg6bwkkhhOUPIAXv7E2lZRwZFHOi5l37Ut9ODamcuZg4WVkaePB5WlhF5BEa4sjHIatAI/95I6yVU+CaVmQjElOxdusp8L0ThCcPpIX1pMRZ9KA98cK6DOJp78AyVLx4cX6xIwsDLuuwKdfpt471yc3NjV9qU1kLEYHfHkdX1WdhqdeUpv2bKPyBjvGq6b4f+ITQow0dqbiUI6l1JWrStR/1/64jNXG2p0IcSNZoBYWlB9aDPunNrzQwDMPknm71lZzuzalFUpEV9dqfIKwTJByh/rYiEpcaSWdTi3Qt8sCFVI8v/yx67OFLziwknqVRZU2oaKV61Lx9d+o3sC91rF+aTEUcSUr0owOvtArI+L00sIyq3OUXOwsy4LKLV04B811JKnGkVh2dyJRvF1Vv9R317ViH7Pm6Q2TVljaEquJV0PON3ai0uiwvToWNRMRxhmRpL/yGeilFLX73T29TKYJpZ+/SJOMMqJhTc+raty91aliOzMUcycoOpIPPU9OroMgjQ8iR/z1ZhZGUXhUH0ppWNiQSF6N26wP5eHOQBoZhspVapunXqcrszQkaXk5G1p6r6FEWOU/xfDU1M+QbonwjTl2WMPlGv04VCJwRVR64kwKTNOsTr02kqnwlZNLei6I0q4iiDlE/ezEZVBlF/7xIP4AJ/ivIs7CIpM7T6VaKsJIX6z2NapnwDflS/ekAX8in+C+lRpZ8uHKD6XBkNifARztVWj4UNukq/dKsGlWuXJlfypO9iapTZU7fVFJ9FpYqdejnE1nWwB9Ogx77QRHhRR2s+XWOA+lAqFamiN9C7fm8kCcdmo+k95OkgWEYJody26l6c2IolZGIyLrLdnotrNP20U4VxdGrV3FaF8NUouj0944k4Syo6844YV1GH45X6FTx28aZVKfhB4JJUy0k0n+Tq5GUM6H2m9NqV0E87exiSpzMg5Z/oJEUdagf2YsNqMqofyi9Ckog/xWeVFgkJefpt4TfUokl72m1yISTUqn+B+i5IoX8lzYiSz5cucGH6f2qWLc0MAyTvdQyLRfDgqNxevqP2PCqAWYuG4KyWTwUKjIwhYkhIH9wCnuvv2a3kb8YHEw95uHgn91QRqZZY1DNFc4WHJJePsdr4UDFntqBwxEyNPh+EhrbpJ8qhhX7o38jM8jvnce5sPTxgiZ1p8NrfjOYB3th5PCZGDdoOs6l1MCETb+jTZF8HoEuq4Mpf/tqJr+48y8m1JYA0gaYc03z4LJ6uXsVv3kaCH+gO933gxLPD2zF328M0fDHWWhrn9dPSuviS0gDwzBMHiE5Iu/8gxMnjuPoPi8sndgZDXqswxOTehg7uSOshGD6MYa1tXGm5x8s4FqnEiR4h9evYnI+Oy5nikbz9mNF+xJ8XCoGqOriBAsuCS8jc9IOisWpHYcRIWuA7yc1RnoVZIiK/fujkZkc986fQ3pVbIK6070wv5k5gr1GYvjMcRg0/RxSakzApt/bIL+rYob5f5bj7PX27Ez8sC4S7jOWoVfyQcz/cRD6D52IP84+S3/GxKIDJk32gHXkEfzk5oAybp0xesF2XAljEzp/XhwKfVMKxTPMXiSFVPVZoRCOnxxBfgGIpSSc/bkCLM3NYZ622KH/gRi+snuNFxmmYJWg4ogN+KNHcUQenIOlV2VoMm8zprmZCN9/jfTZDym47/cASeISqO708Qky8seXkAaGYZg8QjE4PbMdVM8ytencFz8tPIqXjn2w9PgBjHfS/yJZqrd3tmNa7yaoUa44ilhZwoIv0+2GHUMSqS85C6FygCuE4iXtkOFyllSq7mApFO8/gftR8iD4BcSCks7i5wqWWvUPv9j1h6YKeoGMVXFFjNjwB3oUj8TBOUtxVdYE8zZPw1ddFTPMVyBnba64C5gzag0i3KZhadOz6NGwK6as9MK2DQsxqkULTL70TghohFrjTuDWmTUY19kJ0vuHsWJiL9RzrIg2Cy4jKseXgpj8p0RiUjIIMpRw8dR6eFWztO3UFd26tkT1wpne+yQyQVE7C76LxtctkqKoXNWOj+Frps9+ICQkJIE4QxgZfa7uzJeQBoZhmDzCmaLBeC/s2LETuw+exJWAcARf24hRda1zfNEo6davaN2gN+buuI4Ym2qo38wTLfjy3NO5KMSZX2X4uSkTkaSaYEhWAi6eGesf1WQSnbp2Q9eW1fF+VVwUdhbqmhiSopVR1e7rrokZ5muQgzIpHpfmjMIfoS6YvHwYFLvW4UyCK2b5vEFswEo0N3qAPTuuar1cVAa7+oOxYOdFPHr+FN5e4+Fh+QzHpg3HbzdycNWG+UQksLUtzJ8gIpTvtZKv0Ha8v2xdgG6ltK/HKRG+9wf0W+oHM4+u/HG+jxV9h2O79rtEvjr67AcRLC3NIFJG4WWmNxkrwsPx4pPshi8hDQzDMHmEk6K4axd0794NXdo1h6ujVS4v1CXhzKqVuBJjiRYrrsPf+zj27dSU5RuH1RSG7H16lN1FZoktbAvzTTVRefRamanuEZatC7ohY1Ucjr0/9MNSPzN4dPWA5f0V6Dt8Oz5WFWebBoZhdKJ3pyreey5GrXiKmhNXYHQVMZ6HvwRsa6B+JRMYlKiJ6sU4vI2ORpY3zw3s4Np7LhYPqAyJPBiBQR+aF5v5vESwc6uLsuIEXPTaCD8dRmwm31+FASO2IsS2C5Z6bcOWZd1QLGw3vu+zGLcThUBfHX32gwwVqleCEV+hXT7rlzblrjLqImb2noer6mne89uXkAaGYZgvVSKeP38FhbgkXNwd0jtoSY9x9LR/Fq/IyE8iGBkbgVOG4snTbN68K7KDW92yECdchNdGP60L1tlJxv1VAzBiawhsuyyF17YtWNatGMJ2f48+i2/zW5+ZDmlgGEYnnGq2Co7jdBtD/O4aptVvhGUGk3Hh7BQ4GSgQ8Ks7qk97jlZz5qIT7cXUGcdh94svLowvD8XVX9Hr10CUdauJ8iWKwtqEEPXoAjYvXoVzcQ2w7OZJjCzNHqTPC7oeQ8WDX+FedQqCeh5A8Ka2MBTWI/E4BpVuA6+Sc3H30kSUVx0WRRDWtHXBiBMxsK3bG8P6NIVTcTOIkmPwKuIZwsybYkIvJ82VvdjLmOrRHPPuFEG/3Vewvr0tRMoXODykLjr/FYayIw7i4nJPWKu68ck+WDv+L9xMVKU3Hn5HdsD7dRl49vZACf53RTYeGD2zmyYN+oRNpQzDiial8YO3Jza9OoS+WY0j1ydePfaD8uUu9KrWE7vjq6L3zAlobfUYB5csxt5YR1RJuIG7lZbiyamRsNP3coYe6c23NDAMw+QB3eorBfx/cYXTjCB03RuGrR3SaqssJfusxfi/bkJTRPrhyA5vvC7jid4eJSDmOw42HqMxs1t5/r+TcXW8E+r/Fgj7VpMwa4AzpM+8sXftOhx9Kof4XTLclj/BqZF2/F/pE68CD/j2UNUpQeh5IBib2qanN/H4IJRu44WSc+/i0kRV2FRKhK1rg8pDT0BeoRPG/dwdNWyAt+FPEFumJ4Y21aRBEbQGbV1G4ESMLer2HoY+TZ1Q3EyE5JhXiHgWBvOmE9DLSXOPLfbyVHg0n4c7Rfph95X1aG8rgvLFYQyp2xl/hZXFiIMXsdxTe+ikbmlgGCZ7aWUa/3+qokL1z0ck0H/Ta5GxiQvNup4+LbUi4gANqWBEnOphDk5EFrUn0Rnh3QgpNxdQY7tCJOJ/S/Ub6oUPY1rWkyYeeqo1BSiTW7odQ0p7T1WRvof4I6ol4RgNLCYiqet8CtCahVvx6gIt7FSJLMRc+jFULxyZdNqumVZWEUEHBpQhKSclx+En6LX2rKxv/qGRFWTEiYtR+/WBmmMev506mWSOL31RvXvkTNrrpPQIm0oRSss9ZASDtrQpVliXmZ7x6rQf1BQUsn8EOZmLhDwhJvMqfWjD7Ys0qYo059OZ65XefEoDwzBMHlCVWR/3gfdUZSF+eycy0W5rZFjEVGrkGUotIhURR2lMbSuSpIbnZGRXfzRt3zeeqkll1GhFWNp067rHK0ypLipCfQ9lTG/CsYFUTCQl1/kB77/3KdGP1vWsoH5HVnq8Uqoxw1erjaSgVxcWUqdKFiTOnBbOhDpt19RAqvbYgDJS4qSONPzE6wxTxr/5ZyRVkHEkLtae1gdman3plAaGYbKjyjMq+t2pys67Z/A574NQSRnUbVAdRbUHPCtjEex7A/eCXyFeYQBrh2qo7VwSpuzSR57K9TH8ICXiQnzh4xuEl4kcDIyMYVGkBMpVcISdafo1t4JP9/0gf3kPl648QrxVRbjVLQ/Lz7CbvoQ0MAzDZJa/9ZWOFNEIvOaNu8/lsCjrArdqRZHzuQRzS4HoIB/43A1FtEIGi2LlUN25IopkvjmnjEOIrw98g14ikTOAkbEFipQohwqOdsh9VaxjGhiGeU9qmZY3nSrms2PHkGEYhvkasPqKYZiChHWqChh2DL8mybjlNRu7/HV5JFqCSt2mo48zmw6XYZiCgdVXDMMUJKxTVcCwY/g1eYct7a3Q55AuL8E2QDuvNzjY20j4zDAM83Vj9RXDMAUJ61QVMOwYfl2SYl8jJlGXl4KIYGhmDdPPN9ifYRgmT7H6imGYguS9ThXDMAzDMAzDMAyjnwydKtUH5uvFjiHDMAzzNWD1FcMwBUlqmcYmNmcYhmEYhmEYhskF1qliGIZhGIZhGIbJhZx1qpLfIT5Jl4fsGYbJF/Jk6DIhO8MwDMMwDJP/9OtUKZ5i32h32JubwNS0CJz7/gV/rVmhleF7MbppA3T9/QYShXVZSfp7Ehq5N8QP+16Ddc0YRj+x5yejlo0JbGpPxcU4YWWOJeLkRA/Uq1cvbXH3nIFzusz2nkeUIVsxpGF9tP7lEpKFdZ+c/AYWd/oWDfquwwOFsI5hmP9zSoRsHYKG9Vvjl0ufrXRiGOYroUenSonI7T9j6B93YN50EAZ7FsHjrWMwYWuEpmOkjMDesT9itb8t2ndzhqH6b7KmeBmAK95XcC/iE7bcGI3E4xjjUhVVqlTJYqkKlzHHhYDMpyIP2IsZg7pg3N4XOlxkkOPJ2b9xJzoF0b4ncOZJ7u9XJb+Lwdu3b/nlFZ76XoX3tUd49Qk7FpQQirve3vAJfPP5LrIo3iLopjeu3A7BO/b8PMN8fvI7WNzWia+XqqHR9PN4J6xWUzzBuh7OcGq7GHfy9ZY9ISH0Lry9fRD4hl0CZhjmw/ToVCXjvzOXEFOyL1btWYs1uxejW7F38PXxQ4qqw3VgAsbuVaDNr4vR3Z49qvXF4mQwMjOHuTm/GCcj/P493A9PhrHqM7+YGcmEgMynkuy7G0v+OowbESnCmg+RoPLAGRjf2RNdJs7CoMoSYX1OGaLt8hvw8/ODn+9x/OgkFtYzDMN8Rsp3iHx0D/fu3cX5lb9jV7h2pyYRL4L47x5F4h3r6zAM84XQq/fDcXzw5AS8U10Zio9CdCJQyNgIeHEYE3/eieRW8/F7z29y+KAW80kYNMEvpy/h8uXLuHhkDGrzbXJJ7TE4cvEyv+4STv/SRAjIfKnE37TFL3tOYPfs1mDXLxiGKchEltYwjzmJFWvusOdIGYb5ounRJJOhduN6MA/3Qt/a7qjrOgL7Y8qgdTsH/DN5DLYltMDcJb1RMvOF7uSn+HvRIDSrVhyWhWQwMC2CyhPPIZkNsfmyKYKxY3R7DF7vi1uru6CipTFsXCbg9OtwHP3ZDUWNTFHScwGupY3JUODZiXkY2MYdVUrawNRACpmxDcrU6YgJO+4hXgiVRhGOM7/1R8PytjAxMIJVWRc0adkSLdVLGwxa4ycEVElGyKkF6N+wPGxNDWFoWhQVPfrh179DclzJKsP2YEzbtvh5Txhe+6zB8CaVUJSP27hIJbSceBAZR9Xps22xODm9HdoMXgf/5De48sdgNHS0hpGhBUq49sUqn1hNsDdHMLmdZns7LvJGIr8ld9f2Reu0fdASbX/Yhqdpw/CScGZ2+7TvVEurrgtwOcth/noei/z0LhBH5vVHoyr2sODzv8zUFuW/7YW5f4cLAdKJJRwizy3Cd3VL8WWFAUztnNBx1ilEvHclWs/zQY80ZJb8cBt+6tgKrTqPx54g7djfIWDvdHSvVw5FTGSQSAxgUrgEKrmPxwmt59w051lr9Pz9WsbnxZJ9sOy71mg7Zg/CVNund35jmP8P4tKd0dNVjDsbluFYtLDyPUqE7RmDtq174vdrGQvFZJ9l+K51W4zhy3pNVtuB0e0HY73vLazuUhGWfNnoMuE0Xocfxc9uRWFkWhKeC65lHG7ISSEVv4b3yqFoXLEoTAyNUaRSS0w8+OT9Mic5BKcWaOo2U0NDmBatCI9+v+LvkEwhY09iers2GLzOH8lvruCPwQ3haG0EQ4sScO27CqlVBcMwXxHSvIFP9c/HKcLo5Oyu5FaxLDnWaEGjve5Q6NEhVEZamFqueUxyIVialEe0oWNxknJSsq7UhLr260/fdWxCzvaFiIOMGq0II4UQlMkdnY+hFkXkamomA8marabIzAcixY9m1zSg4i07Ut3CZcnDszpZiC2o1aBuVLywE3nWdyCZyIq6744R/iCRzo4qSyZFK1G95u2pe7+B1LdjfSptKiJOUoL6HXildaxj6dy4alSI48i41LfUpW8f6uThyMfPEbhCZG1fktynXxXCKih4Z28qLePIoJgTNe/al/p2akjlzMXEycrSwIPPc3QOyQPmk6tUQuXa9iBXCwmZlW1IXXp3o4aljYnjjKn2rOuUJITVb9te0VpPAxI79KLpw6uTsdSKKjfvSb3b1yAbCUeSsiPp33h+q55vpG6li1Px4vxS2IhE/L4wtLTXfBaWUi1+J/+0TBVPeweWEb6zIwsDjjiLHrSHj+t9+qRXizyQFtaTfiBePcX50MJGRUjMb5uRfQ1q2rk39e7SmupXsKUqP18SAqUeCxFZO7uSo5GELCs3p559O5OrvYw4kTV12BSulV49zwcd00CJ/9IIBzFJq02lmymaVUkPNlOPMjISmVSnEQdCtMo3BYVu7UJ2/PlayL4Wteo5gAYPGkDfdWpJ37oOoz2pWYKXum1F+h6iBGGdWsIxGlhMRFLX+RSgiljv/MYwXy+d6qukKzSugoSkLnPo4l8dyEpkQo2WCe0MuT/94iIlSYVxdEVdUMspYL4rSUVFqO+hDDmNz2oDqZhISq7zA9R/m+I3m2oaFKeWHetS4bIe5FndgsQWrWhQt+JU2MmT6jvwed6qO2mymhCvuCjVbVSVTMRmVLZhF+rdrSGVNubLYOPaNOt6ek1BimDa2bs0yTgDKubUnLr27UudGpYjc76skJUdSAefa5VOr9aSp4GYHHpNp+HVjUlqVZma9+xN7WvYkISTUNmR//KlPsMwX4PUMk2/TlVmb07Q8HIysvZcRY/SWxwCBUV4dSBrvjBzHHiAQrW+j9/Sngw51qnKS/nTqZKSSGxMdebcpqTYrdTBhO8USItT9x0RlHRrGlWX8hXVvADhD/j266tXFJcpnqjT35Mj35mw6LqT4oR19GYLdbTg43IcQafeCOv46uP69FpkyDeiO27RahhHHaJ+9mIyqDKK/nmRHnmC/wryLMw3Sp2n0y2hEawPTWMXfCfOkMr32UIBQj2sCNtCnWxFJLYfSMe0ajSdt03oVHEiPg5TJxqx/ylpkhdFB/vak1hckkb8m6hekyp+Zxcy5fODx/JQ3fKDDp0f3dOrJU87VSl0a0ZNPp9L6JuOa8kvQ3yJFB2dviL9WBhR5YE7KVBooyRem0hVpRyZtPfi955Ar/NB9zRk7lSldajMa9HPJyIyHhfFc1rdzJA4g0a0IvTDR0y/TpV++Y1hvlb6dap+If+Y0zSitIQk5cfQRVVGym2nis+TYuM6NOd2EsVu7UAmfBkhLd6ddkQk0a1p1UkqdaV56owpxMunlzMsT322BAj5WEFhWzqRrUhM9gOPpXV+og71I3uxAVUZ9Q+lF08J5L/CkwrzaXCefkuoD3jqThVHIj4OU6cRtP+p8E3UQerLl3HikiMoU1XBMMwXKrVMy8UTGdE4Pf1HbHjVADOXDUHZzMP+lM9xYOvfeGPYED/Oagt79vz7V4kr1hVTRlWHTGIEIxkHae2RmN6lKMSFjFCI/z5Fnj6kwdjaGsaZzigL1zqoJAHevX6FGGEYl+J5MJ7FczB3aQJ3S806wAhVPFxRjHsL/zvpQypiT+3A4QgZGnw/CY1t0iM3rNgf/RuZQX7vPM6px0/lBAdj91nYt+47lBemqxTZdUCvplagF9dx9aH+25aKOHt0Wn0AyzuUhGYqCTPUrlUeYmUkwkLfGzCS5/RNb55LuoQNXreRbNEKs/8YiMpGwno1A5ibZ1jB42DqMQ8H/+yGMsJcKQbVXOFswSHp5XO8FoZB6nU+6J0GjeSHXujXcjB2vamFyQeOY6Fn0YzjpEUGMDXhTxj5A5zaez0tbXlBn/zGMP83jBpi1NA6kAZ6Ydk+XWZJ/RgOxbpOwajqMkiMjCDjpKg9cjq6FBWjkJE6p0EuV7WTBJwx3Gftw7rvygszG4tg16EXmloRXly/Ck1VEYtTOw4jQtYA309qjPTiyRAV+/dHIzM57p0/pxnum4bA2XfC6gPL0aGkpqaAWW3UKi+GMjIMn6CqYBgmD2Vqdunu7dmZ+GFdJNxnLEOv5IOY/+Mg9B86EX+cfaZpEKfch9+DJIhLVIeTVuOH+bqIijvC0UT4oGr4lquIUtl1kN/ewfZpvdGkRjkUL2IFSwtzmNsNw7EkvnJS3RUVgomLloGDKd8tv3gAR8KEFinf2Ti94x+EKo1QrmJpoSMiR5BfAGIpCWd/rgBLYYZCzWKH/gdi+Hhf48WLnFaxfKeqdIW0RryGAUqUtOM7P68QEaHVWtZx29JIqqJZKwek7yq+Eh58EOGRodjSzVhYl4/0TW8eU0behh9/bCVOjdG0iC75n0Ohb0qhuNCu0JBCqvqsUAidbP3OB/3TwP/52zMY12owdoZVxthDRzHLwyaLQtICHSZNhod1JI785AaHMm7oPHoBtl8JQ25fEqFXfmOY/xtiVBj4A9oXjsLRFetxP9edDRGKOzoiPauZ8vVOKa3yOhO+U1W6QhlkrCpKoKQd3/l5FQF1VSEPgl9ALCjpLH6uYKlVNvGLXX9oiqcXyFxdSao2QysHrV8W2WHwwXBEhm7Bp6gqGIbJOznr7cRdwJxRaxDhNg1Lm55Fj4ZdMWWlF7ZtWIhRLVpg8qV3fOmRgAS+AccZGsGI9akKvqRb+LV1A/SeuwPXY2xQrX4zeLZoiZaezigq5oRAAsu2GNbDAVzwVvSqWh51GjVGvYqV0GFdIArV/hGTuhYRTkwlEpOS+Q6ADCVcPDNM0qBa2nbqim5dW6J64Uzx55Kmy6EaGqv5rNe2fYiBKaxtrGFqIHzOL3mV3lyg5CSo+m+csQlM8iz/63c+5CQNnJkz2rUsj0LJATi2/SIis+mvG9UahxO3zmDNuM5wkt7H4RUT0aueIyq2WYDLUTnt5DMMky3r9hjdrwIUNzZg9YVEYeXnxNcRqqyeWlEoE5GkmoFLVgIunhnLppYt26JT127o2rI6dKmuDEytYWNtivyuKhiGyVs5aO7E49KcUfgj1AWTlw+DYtc6nElwxSyfN4gNWInmRg+wZ8dVJIksYWkmgjLqZaYXiSoQHv6C/3+mIEk6sworr8TAssUKXPf3xvF9O7Fjxw7s2DgMNTPcfeDrnueHsGZfCKzqdUWnmpaIexaMV8bV0WniZpz/ewbqpl2dk8DWtjB/kopQvtdKTXyZl60L0C1PL+XH4/GjUChEdigpDMfQZ9tyRV1D594nS+8HiK1tYSPjoAx+jEd5NoRFv/MhR2ngLNFw0V4sb2eFB2v7oMP0C8iujySzq4/BC3bi4qPneOrthfEelnh2bBqG/3ZDCMHjOKjaUJoh11oUyUhmhSDD6EGG2sNHopFxMHatPoroTFmK4/OauqPzXlZLzp/2RnwgHoUqILJ3gLqqkNjCtjDfpBKVR6+VWZRN/LJ1QTd255lhCjC9O1Xx3nMxasVT1Jy4AqOriPE8/CVgWwP1K5nAoERNVC/G4W10NEhWAdUrGUEZfhln/VKnOFUi6uJM9J53FSmZCj7m65b4/DnfeRajpIs7HNLGSCTh8dHT8M/UoH337x4ce2GM+iPWYMcpH9x7FIgHN89gx7zv4GShfUqKYOdWF2XFCbjotRF+uR1bpQN54FZsPPUW4oqeaFleU/vps205ITIyhhGnROiTp9Dl9b8fk9/p1YlZXbg7GUDuvx2rj+fFMxAqep4POUyDSOaIgZt3Y0odDj6/dkG3pbc+Mg29Aexce2Pu4gGoLJEjODBIWK+682UKYxEh5lkIXqYmQBmBo+OnYW/aCoZhdCEq2QujuxZH9PEN2J/hZcAczEyNIaIYPAt5mZbXlRFHMX7a3vS8l2cUeLzlL5yKEaNyi1ZwVFUVIju41S0LccJFeG30y/VQYIZhvj76dareXcOvo5bhsdN4rPypGmSQwKHMN+CeHcXyJduxbfEC7HokQsXqlSGFJVp0bwlbhR+WDxyC33fsxaZf+qBh20WILK8ahiTEyXxayT5Y++NwDBs2DCMm7kYAX9koA3Zj4ohh/Lrh+HGtjxBQP4UqVkRpvkF5d+NkzNl8AAe3L8f4jjVR67u9CM90d0RW0gH24hgcHFEDdZu1RcfO3fFd34EY+sNEzFt/Eg+03s8hqzUEPzSzQvylqWjWaCBmr9mJw8eO4+iBndi0ahHmbrudNqmF/vjG7pUNmLV0M/YeOoTtK8aiTfOx+CeuBHrO+B7OQrr12backNVwQ01TBQLXDcV3szZg35HD2Lf1T/y2+hTS2g1ax23Y9zNx6An/RcIN/DVaddz4YzltFx4Il2P1Sq8e8epFXA79xvWCg+gpNvWqj/Y/L8WWA4dxYPt6LJ7QBwOW3RIC6kev8yE3aTB1w/Q9G9CvzFucntge/TYFpsebfBW/dmmPQZMWYvWmnThw5Cj2ey3B2J//gr/CDC71awsB+QK2sAtcHCVIvrQIw2Ztxv69azG1QwN03/4OdjasEGQY/Zii6Q+DUYMLQVDq87hqIhR2cYGjJBmXFg3DrM37sXftVHRo0B3b39kh11mN76xdWT8DSzbtwYG9Xlg6rj08x59GPN/Jmz6iuvAMsAy1hvyAZlbxuDS1GRoNnI01Ow/j2PGjOLBzE1Ytmotttz/VVS2GYT4L1RSAwj8fkUD/Ta9FxiYuNOt6+jyfiogDNKSCEXGqFionIovak+hM6jTZihDaP8KJzEWc+jc4sTlV6bOBbl+cRFWkbEr1vKTbMeTFb6dOJprj8f7CkUmn7ZpwwhTPaVM+J+ynXlbitKmhNVNFS6nmbD91cP5EoKNjapOVJDVujmR29Wn09n00vpqUZI1WUFjqwZY/oBVNLUmkfieVHdkWtiRzEwOScKq/5ahQ+cG0Pzz9zFC8ukALO1XSvMcqi/RmmClbR5r0cyQSi/l0pMdnYO9O32/xzxinPtsmTKkOg5a0Pm0e8I9JJL91PamC6j1SWtsnrTGDfFPn3/3gcQOJS42kM6nZUp/06hOv3uLIb/NwcrMzyLBdnEFRavb7XSFM6rHQYdpxgX7ng25pyOo9VSoJd5ZRsyL8cTGsQIMPCOVVyk1a0NiOCgnlWupvi0zLkufEQ5Q6M7KGgp4f/ZFqWKQeW/5Y2Dehmaeu0Hw3rfylb35jmK+YKs98lPaU6lr5X/VKgy2dCqumLtaaUl2z/uiPNcgiNV9yMrJvMpNOXZlPbqrXEWSYUj39c8L+XmQlTp2KXZhCXVqTZvupMrKCwncOIeeihbTqCVXcBmRX73va6p+hxOIp6NWFhdSpkgWJtcOr/8aEOm3XKp3UU6qDDFquT39lBMMwXyVVHlfh1P/H8bk/80Bkfbx7Bp/zPgiVlEHdBtVRNMMUOXK8vHcJVx7Fw6qiG+qWt8x+hh0mx3J9DPOEAtGB1+B99znkFmXh4lYNRd970laBh8uawWXMdVSZeRonptWGqfBN0otb2PZTZwzdEQq33wJwfkwp4RsVJeJCfOHjG4SXiRwMjIxhUaQEylVwhJ2p/meU4sGvcK86BUE9tuPC91YICI2HQdGK6mnPrTOcv6l02bbcUUQHwcfnLkKjFZBZFEO56s6oWESY611v+Z9enSW/wcMbPrgf/g4SKzuUq+IMR5ssd7Ie9Dwf8jwNSsQG++LGvWC8ilfAwNoB1Wo7o6Rp1jf/5a/vw9v7Pl5LiqPGty4oyWb1Yv6P5V99Jcfr+97wvv8akuI18K1LSeRJVlPGIsTvLgJDXyA62RC2FWqjdgVrZFuCKOMQ4usD36CXSOQMYGRsgSIlyqGCox1yUF0xDPOFSy3T8qZTxXx2X88xfIE/m3+D4WdrY+H98xhXRruGUeLp7x4o//MV1F54H5fGlRHW5720TlXPAwje1FZ49wjDMAyT31ibg2GYgiS1TNN7ogqGyR1j2NlZQST3waqRk/DH7pM4730Fl/49iA2z+6DjnEuQm7ujS1sHITzDMAzDMAzDfNnYnaoC4ms6hopnhzGx9wisuBCmfo9QGk4Ci/KtMGbFakxpUixfe/zsThXDMMznwdocDMMUJKllGutUFRBf3zHUjH2/fDsIkTHJ4ApZoniF2qhXywHZPJaStxSJiI6Oh9LAFFYmuX2+h2EYhtEVa3MwDFOQsE5VAcOOIcMwDPM1YPUVwzAFiaZMI/wP4mo93MsTsdIAAAAASUVORK5CYII=;" vertex="1" parent="1">
          <mxGeometry x="575" y="1754" width="533" height="76.23" as="geometry" />
        </mxCell>
        <mxCell id="4vnJShNR1k7JBB3oN384-14" value="&lt;div style=&quot;border-color: var(--border-color); color: rgb(56, 58, 66); font-family: Consolas, &amp;quot;Courier New&amp;quot;, monospace; font-size: 14px;&quot;&gt;&lt;span style=&quot;background-color: initial;&quot;&gt;Skuratovich (2016)&lt;/span&gt;&lt;br&gt;&lt;/div&gt;" style="text;html=1;strokeColor=none;fillColor=none;align=center;verticalAlign=middle;whiteSpace=wrap;rounded=0;" vertex="1" parent="1">
          <mxGeometry x="706.5" y="1734" width="270" height="20" as="geometry" />
        </mxCell>
        <mxCell id="4vnJShNR1k7JBB3oN384-15" value="&lt;span style=&quot;color: rgb(56, 58, 66); font-family: Consolas, &amp;quot;Courier New&amp;quot;, monospace; font-size: 14px;&quot;&gt;&amp;nbsp;The data for three ransom notes, an image, a webpage and a text document are computed using&amp;nbsp;the strings that were decrypted earlier and the computer&#39;s ID.&lt;br&gt;&lt;/span&gt;" style="rounded=0;whiteSpace=wrap;html=1;fillColor=#dae8fc;strokeColor=#6c8ebf;" vertex="1" parent="1">
          <mxGeometry x="-40" y="1860" width="600" height="100" as="geometry" />
        </mxCell>
      </root>
    </mxGraphModel>
  </diagram>
</mxfile>
